<?xml version="1.0" encoding="utf-8"?>
<!-- Generator: Adobe Illustrator 15.1.0, SVG Export Plug-In . SVG Version: 6.00 Build 0)  -->
<!DOCTYPE svg PUBLIC "-//W3C//DTD SVG 1.1//EN" "http://www.w3.org/Graphics/SVG/1.1/DTD/svg11.dtd">
<svg version="1.1" xmlns="http://www.w3.org/2000/svg" xmlns:xlink="http://www.w3.org/1999/xlink" x="0px" y="0px" width="300px"
	 height="300px" viewBox="0 0 300 300" enable-background="new 0 0 300 300" xml:space="preserve">
<g id="Ebene_1">
	<path fill="#C1FFC8" d="M150,0C67.157,0,0,67.158,0,150c0,82.843,67.157,150,150,150s150-67.157,150-150
		C300,67.158,232.843,0,150,0z M219.149,78.787v150.86h-35.543V121.449l-32.025,32.025l-0.004-0.008l-1.469,1.47l-33.638-33.638
		v107.558H80.928V77.21h0.039c0.609-9.264,8.315-16.588,17.733-16.588c4.817,0,9.187,1.917,12.387,5.03l0.178,0.177l38.85,38.848
		l37.391-37.394c3.259-4.061,8.261-6.661,13.872-6.661c9.815,0,17.771,7.957,17.771,17.771c0,0.131,0,0.263-0.004,0.393H219.149z"/>
</g>
<g id="M">
</g>
</svg>
