<svg xmlns="http://www.w3.org/2000/svg" viewBox="0 0 693.67 141.73">
  <title>logo-white</title>
  <g>
    <path d="M116.92,325.7l0,0a39.62,39.62,0,0,1,0-56.09l0,0a15.59,15.59,0,0,0-22-22,70.85,70.85,0,0,0,0,100.21,15.59,15.59,0,0,0,22-22h0Z" transform="translate(-74.11 -226.77)" style="fill: #f9e400"/>
    <path d="M116.92,269.58l0,0a39.62,39.62,0,0,1,56.09,0l0,0a15.59,15.59,0,1,0,22-22,70.85,70.85,0,0,0-100.21,0,15.59,15.59,0,1,0,22,22h0Z" transform="translate(-74.11 -226.77)" style="fill: #50b6e2"/>
    <path d="M173,325.7l0,0a39.62,39.62,0,0,1-56.09,0l0,0a15.59,15.59,0,1,0-22,22,70.85,70.85,0,0,0,100.21,0,15.59,15.59,0,1,0-22-22h0Z" transform="translate(-74.11 -226.77)" style="fill: #f15851"/>
    <path d="M116.92,269.58a15.59,15.59,0,1,1,0-22A15.59,15.59,0,0,1,116.92,269.58Z" transform="translate(-74.11 -226.77)" style="fill: #0a83b8"/>
    <path d="M116.92,347.74a15.59,15.59,0,1,1,0-22A15.59,15.59,0,0,1,116.92,347.74Z" transform="translate(-74.11 -226.77)" style="fill: #ce4739"/>
  </g>
  <path d="M264.72,312.31c4.46-3.46,5.1-1.47,8.93,2.31,1.94,1.91,7.12,5.18,3.69,8-7.07,5.84-13.43,8.5-22.59,8.5-20.52,0-35.05-15.3-34-35.55,0.49-9.12,4-17.71,11.1-23.67a34.09,34.09,0,0,1,23-7.75A33.14,33.14,0,0,1,267,266.48a30.47,30.47,0,0,1,7.32,3.92c4.5,3.44,2.43,5.48-1.09,9-0.79.79-1.55,1.6-2.33,2.4-1.75,1.79-3,3.08-5.43,1.42-4.59-3.14-10.41-4.83-15.91-3.41-17.68,4.58-16.74,36.07,4.9,36.07a17.23,17.23,0,0,0,10.23-3.58h0Zm491.92,17.36a5.4,5.4,0,0,1-5.38-5.38V254.48a5.4,5.4,0,0,1,5.38-5.38h5.76a5.4,5.4,0,0,1,5.38,5.38V324.3a5.4,5.4,0,0,1-5.38,5.38h-5.76Zm-30.36-8c-6.24,6-12.27,9.06-21.17,9.06-18,0-26.66-14.9-26.66-31.56V270.79a5.4,5.4,0,0,1,5.38-5.38h5.76a5.4,5.4,0,0,1,5.38,5.38V299c0,9.33,5,16.57,14.9,16.57,9.67,0,15.81-8.21,15.81-17.41V288a5.09,5.09,0,0,1-.14-1.19V270.79a5.4,5.4,0,0,1,5.38-5.38h5.76a5.4,5.4,0,0,1,5.38,5.38v53.55a5.36,5.36,0,0,1-5.34,5.34h-4.87a5.52,5.52,0,0,1-5.34-5.3l-0.24-2.72h0ZM657,265.57h11.24a5.41,5.41,0,0,1,5.34,5.43v3.73a5.41,5.41,0,0,1-5.34,5.43H657V324.3a5.39,5.39,0,0,1-5.38,5.38h-5.76a5.4,5.4,0,0,1-5.38-5.38v-61c0-13.33,7.48-23.81,21.09-25.09l1.1-.07a19.71,19.71,0,0,1,2.41,0h5.25a5.41,5.41,0,0,1,5.34,5.44V247a5.4,5.4,0,0,1-5.34,5.43h-3.85a2.47,2.47,0,0,1-.37,0c-6.43,0-9.11,5-9.11,10.92v2.24h0Zm-40.15,0h12.29a5.36,5.36,0,0,1,5.34,5.34v3.65a5.35,5.35,0,0,1-5.34,5.34H616.86v27c0,5.19,2.49,8.19,7.76,8.19h2.5a5.35,5.35,0,0,1,5.34,5.34v3.66a5.36,5.36,0,0,1-5.34,5.34h-4.75c-0.9,0-1.74,0-2.64-.06-13.31-.82-19.27-9.45-19.27-22.47V254.52a5.36,5.36,0,0,1,5.34-5.34h5.71a5.35,5.35,0,0,1,5.34,5.34v11h0Zm-177.81,0h12.3a5.35,5.35,0,0,1,5.33,5.34v3.65a5.35,5.35,0,0,1-5.33,5.34H439v27c0,5.19,2.49,8.2,7.76,8.2h2.5a5.35,5.35,0,0,1,5.35,5.34v3.66a5.36,5.36,0,0,1-5.35,5.34h-3.7c-14.49,0-23-6.2-23-22.53V254.52a5.36,5.36,0,0,1,5.34-5.34h5.71a5.35,5.35,0,0,1,5.34,5.34v11h0Zm-72.15,7.88c5.86-5.57,12.22-9,20.52-9,18,0,27.31,14.72,27.31,31.55V324.3a5.4,5.4,0,0,1-5.38,5.38h-5.76a5.39,5.39,0,0,1-5.38-5.38V296.06c0-9.33-5-16.57-14.91-16.57-9.65,0-15.8,8.18-15.8,17.35v27.5a5.36,5.36,0,0,1-5.34,5.34h-5.72a5.35,5.35,0,0,1-5.34-5.34V270.62a5.35,5.35,0,0,1,5.34-5.33h4.87a5.53,5.53,0,0,1,5.34,5.3l0.25,2.84h0Zm178.08,0c5.86-5.57,12.21-9,20.51-9,18,0,27.31,14.72,27.31,31.55V324.3a5.4,5.4,0,0,1-5.38,5.38h-5.76a5.4,5.4,0,0,1-5.38-5.38V296.06c0-9.33-5-16.57-14.9-16.57-9.65,0-15.81,8.18-15.81,17.35v27.51a5.35,5.35,0,0,1-5.33,5.34h-5.72a5.36,5.36,0,0,1-5.34-5.34V270.62a5.36,5.36,0,0,1,5.34-5.33h4.88a5.52,5.52,0,0,1,5.33,5.3l0.25,2.84h0Zm-232.58-9.3c-19.51,0-33.23,14.16-33.23,33.49,0,19.6,13.61,33.48,33.36,33.48S346,317.23,346,297.61c0-19.38-14.18-33.49-33.62-33.49h0Zm162.08,39.43c1.45,9,10,12.69,18.44,12.69a30.07,30.07,0,0,0,12.15-2.71c0.62-.29,1.2-0.55,1.79-0.89,2-1.15,3.83-1.84,5.61,0,1,1,1.93,2,2.91,2.94a32.16,32.16,0,0,1,2.58,2.86c2.7,3.41.81,4.22-2.25,6.28-6.57,4.44-15.18,6.64-23.05,6.64-21.19,0-35.29-12.82-35.29-34.26,0-20.22,14-33.61,34.13-33.61,20.6,0,32.37,12.09,32.74,32.65,0.1,5.63.35,7.42-5.52,7.42H474.48Zm-162-24.33c10.07,0,16.84,8.78,16.84,18.38,0,10.13-6.21,18.25-16.84,18.25s-16.84-8.13-16.84-18.25,6.32-18.38,16.84-18.38h0Zm162.29,10.51H508c-1.26-8.26-8.12-11.53-16-11.53S477.25,281.93,474.81,289.73Z" transform="translate(-74.11 -226.77)" style="fill: #000;fill-rule: evenodd"/>
</svg>
