<svg id="Ebene_1" data-name="Ebene 1" xmlns="http://www.w3.org/2000/svg" viewBox="0 0 326.57 63.64"><defs><style>.cls-1{fill:#231f20;}</style></defs><title>FORK_Logo</title><path class="cls-1" d="M0 5.2l6.08 2.25v48.37L0 57.78v3.69h31.77V57.7l-6.87-1.68v-21.8h12.04l3.96 6.43 2.46-.62-.03-16.85-2.02-.7-4.39 5.5H24.9V7.05h15.12l6.63 7.83 2.39-1.32.01-11.87H0V5.2zM266.57 1.54v18.39l20.79 41.61h39.21v-60h-60zM111.7 8a27.75 27.75 0 0 0-9.84-5.93 38.28 38.28 0 0 0-13-2.06 39.89 39.89 0 0 0-13.71 2.33 33.76 33.76 0 0 0-11.16 6.59 30.72 30.72 0 0 0-7.46 10.27 31.86 31.86 0 0 0-2.73 13.36 35.42 35.42 0 0 0 2 11.87 29.2 29.2 0 0 0 5.84 9.94 27.46 27.46 0 0 0 9.63 6.81 33.13 33.13 0 0 0 13.32 2.5 42.26 42.26 0 0 0 15.25-2.55A31.46 31.46 0 0 0 111 54.06a29.81 29.81 0 0 0 6.86-10.72 38.07 38.07 0 0 0 2.33-13.49 33.37 33.37 0 0 0-2.2-12.39A26 26 0 0 0 111.7 8zm-9.8 34.28a28 28 0 0 1-2.37 7.65 15.8 15.8 0 0 1-4.48 5.63 11.22 11.22 0 0 1-7.12 2.2q-7.74 0-12.09-7.43T71.49 29.1a46.82 46.82 0 0 1 .83-9 25.66 25.66 0 0 1 2.59-7.47 15.23 15.23 0 0 1 4.44-5.15 10.46 10.46 0 0 1 6.29-1.93 14.78 14.78 0 0 1 8.48 2.24 15.41 15.41 0 0 1 5.19 6.11 29.77 29.77 0 0 1 2.59 9 81.56 81.56 0 0 1 .7 11 50.68 50.68 0 0 1-.71 8.38zM178.59 43.95q-4.27-6.24-8-12a27.59 27.59 0 0 0 5.1-2.59 19.45 19.45 0 0 0 4.13-3.56 16.29 16.29 0 0 0 2.77-4.48 14 14 0 0 0 1-5.36 13 13 0 0 0-2-7.43 13.26 13.26 0 0 0-5.54-4.61 28.93 28.93 0 0 0-8.44-2.33 80.06 80.06 0 0 0-10.68-.66q-1.41 0-3.43.09l-4.22.18-4.27.17c-1.37.06-2.53.09-3.47.09l-7.25.22c-2.67.09-6.48.13-9.7.13v4l5.86 2.47v47.93l-5.75 1.19v4.13h31.32v-4.22l-6.32-1.23V34.73h5.27l17.49 26.8h19.57v-4.14l-4.71-1.31q-4.47-5.88-8.73-12.13zM165.4 23.2a9.08 9.08 0 0 1-2.15 3.56 10.23 10.23 0 0 1-4 2.42 19 19 0 0 1-6.2.88h-3.35V5.71a19.32 19.32 0 0 1 2.24-.31c1-.08 1.95-.13 2.94-.13a10 10 0 0 1 8.44 4 12.22 12.22 0 0 1 2.07 4.3 20 20 0 0 1 .66 5.18 14.11 14.11 0 0 1-.65 4.45zM221.9 7.65l5.76-1.67V1.76h-29.93v3.95l5.29 3.45v47.2l-5.29 1.04v4.13h29.93v-4.22l-5.76-1.23V7.65z"/><path class="cls-1" d="M242.08 5.71l5.23 2.47-23.57 22.67v.36l20.75 30.32h1.65l7.83-15.93-14.93-20.99L257.5 7.65l4.51-1.67V1.76h-19.93v3.95z"/></svg>