<svg xmlns="http://www.w3.org/2000/svg" viewBox="0 0 337.65 72"><title>microsoft</title><path d="M140.35 14.39v43.2h-7.5V23.73h-.12l-13.41 33.86h-5l-13.71-33.86h-.09v33.86h-6.93v-43.2h10.75l12.41 32h.18l13.1-32h10.3zm6.27 3.28a4 4 0 0 1 1.31-3 4.42 4.42 0 0 1 3.07-1.24 4.36 4.36 0 0 1 3.19 1.25 4.06 4.06 0 0 1 1.27 3 3.91 3.91 0 0 1-1.3 3 4.47 4.47 0 0 1-3.16 1.18 4.39 4.39 0 0 1-3.15-1.22 3.94 3.94 0 0 1-1.23-2.96zm8 8.95v31h-7.29v-31h7.29zm22.11 25.67a10.07 10.07 0 0 0 3.58-.75 15.07 15.07 0 0 0 3.62-2v6.78a14.6 14.6 0 0 1-4 1.51 21.58 21.58 0 0 1-4.87.51A14.73 14.73 0 0 1 159.76 43a17.66 17.66 0 0 1 4.37-12.31q4.37-4.84 12.38-4.83a16.93 16.93 0 0 1 4.14.53 13.84 13.84 0 0 1 3.35 1.2v7a14.91 14.91 0 0 0-3.45-1.91 10 10 0 0 0-3.6-.68 9.14 9.14 0 0 0-7 2.8 10.55 10.55 0 0 0-2.65 7.56 10.07 10.07 0 0 0 2.55 7.32 9.19 9.19 0 0 0 6.93 2.61zm28-26.18a9.24 9.24 0 0 1 1.57.12 6.54 6.54 0 0 1 1.18.3v7.38a6.36 6.36 0 0 0-1.67-.8 8.28 8.28 0 0 0-2.67-.38A5.66 5.66 0 0 0 198.6 35q-1.85 2.26-1.85 7v15.64h-7.29v-31h7.29v4.88h.12a8.55 8.55 0 0 1 3-4 8.17 8.17 0 0 1 4.86-1.41zm3.14 16.45q0-7.68 4.34-12.17t12.05-4.49q7.26 0 11.34 4.32t4.08 11.67q0 7.53-4.34 12t-11.81 4.46q-7.2 0-11.43-4.23t-4.23-11.56zm7.59-.24q0 4.85 2.2 7.41a7.84 7.84 0 0 0 6.3 2.56 7.34 7.34 0 0 0 6.06-2.56q2.08-2.56 2.08-7.59t-2.15-7.55a7.48 7.48 0 0 0-6-2.55 7.64 7.64 0 0 0-6.22 2.67q-2.27 2.67-2.27 7.61zm35.07-7.56a3.12 3.12 0 0 0 1 2.46 17 17 0 0 0 4.4 2.24 14.91 14.91 0 0 1 6.13 3.93 8.15 8.15 0 0 1 1.76 5.29 8.5 8.5 0 0 1-3.36 7q-3.36 2.65-9.08 2.65a21.86 21.86 0 0 1-4.26-.47 19 19 0 0 1-4-1.19V49.5a18 18 0 0 0 4.28 2.2 12.53 12.53 0 0 0 4.16.81 7.41 7.41 0 0 0 3.65-.69 2.48 2.48 0 0 0 1.17-2.32 3.22 3.22 0 0 0-1.22-2.55 18.08 18.08 0 0 0-4.62-2.4 14.28 14.28 0 0 1-5.72-3.8 8.31 8.31 0 0 1-1.69-5.36 8.47 8.47 0 0 1 3.33-6.88 13.28 13.28 0 0 1 8.63-2.7 20.89 20.89 0 0 1 3.64.36 16.12 16.12 0 0 1 3.37.93v6.93a15.57 15.57 0 0 0-3.37-1.66 11.26 11.26 0 0 0-3.83-.69 5.58 5.58 0 0 0-3.24.81 2.58 2.58 0 0 0-1.13 2.27zm16.42 7.8q0-7.68 4.34-12.17t12.05-4.49q7.26 0 11.34 4.32t4.08 11.67q0 7.53-4.34 12t-11.81 4.46q-7.2 0-11.43-4.23t-4.24-11.56zm7.59-.24q0 4.85 2.2 7.41a7.84 7.84 0 0 0 6.3 2.56 7.34 7.34 0 0 0 6.06-2.56q2.08-2.56 2.08-7.59T289 34.59a7.48 7.48 0 0 0-6-2.55 7.64 7.64 0 0 0-6.22 2.67q-2.25 2.67-2.24 7.61zm48.41-9.73h-10.87v25h-7.38v-25h-5.18v-6h5.18v-4.27a10.72 10.72 0 0 1 3.18-8A11.15 11.15 0 0 1 316 11.2a18.09 18.09 0 0 1 2.35.14 9.32 9.32 0 0 1 1.81.41V18a7.55 7.55 0 0 0-1.27-.51 6.58 6.58 0 0 0-2.08-.3 4.4 4.4 0 0 0-3.53 1.43 6.32 6.32 0 0 0-1.23 4.23v3.74h10.86v-7l7.32-2.23v9.19h7.38v6h-7.38v14.49a6.11 6.11 0 0 0 1 4 4.15 4.15 0 0 0 3.27 1.18 4.87 4.87 0 0 0 1.52-.3 7.14 7.14 0 0 0 1.55-.72v6a8.57 8.57 0 0 1-2.3.72 15.73 15.73 0 0 1-3.18.33q-4.61 0-6.91-2.45t-2.3-7.4V32.59z" fill="#77787b"/><path fill="#f26522" d="M0 0h34.22v34.22H0z"/><path fill="#8dc63f" d="M37.78 0H72v34.22H37.78z"/><path fill="#00aeef" d="M0 37.78h34.22V72H0z"/><path fill="#ffc20e" d="M37.78 37.78H72V72H37.78z"/></svg>