<?xml version="1.0" standalone="no"?><!DOCTYPE svg PUBLIC "-//W3C//DTD SVG 1.1//EN" "http://www.w3.org/Graphics/SVG/1.1/DTD/svg11.dtd"><svg width="100%" height="100%" viewBox="0 0 401 110" version="1.1" xmlns="http://www.w3.org/2000/svg" xmlns:xlink="http://www.w3.org/1999/xlink" xml:space="preserve" style="fill-rule:evenodd;clip-rule:evenodd;stroke-linejoin:round;stroke-miterlimit:1.41421;"><g><path d="M251.901,58.077l0,-2.205l-0.203,0c-4.702,0 -5.919,-1.418 -5.919,-6.897l0,-48.081l-14.775,2.015l0,2.179l0.202,0c2.865,0 5.923,0.493 5.923,6.329l0,37.558c0,5.479 -1.22,6.897 -5.923,6.897l-0.202,0l0,2.205l20.897,0ZM205.592,35.135l23.102,0l0,-0.204c0,-10.375 -5.099,-15.631 -15.145,-15.631c-11.295,0 -17.266,6.385 -17.266,18.488c0,13.412 7.363,21.101 20.205,21.101c5.546,0 9.904,-1.603 11.341,-2.135l0.133,-0.045l0,-3.375l-0.275,0.101c-2.513,0.929 -4.948,1.375 -7.441,1.375c-10.732,0 -14.601,-10.126 -14.654,-19.675ZM205.592,31.375c0.069,-3.19 1.72,-8.893 7.633,-8.893c4.598,0 6.768,2.827 6.817,8.893l-14.45,0ZM198.834,55.148c-0.859,0.277 -1.743,0.557 -2.596,0.557c-2.561,0 -3.47,-1.718 -3.47,-6.57l0,-16.244c0,-9.91 -3.728,-13.591 -13.757,-13.591c-7.524,0 -15.143,2.953 -15.143,8.611c0,2.998 2.516,4.366 4.856,4.366c3.801,0 4.36,-2.493 4.9,-4.904c0.566,-2.519 1.099,-4.891 5.06,-4.891c5.431,0 5.431,6.016 5.431,10.409l0,3.887c-5.51,0.267 -21.8,1.117 -21.8,12.606c0,5.241 4.891,9.505 10.9,9.505c5.891,0 9.414,-3.521 11.069,-5.325c0.609,2.647 1.78,5.325 6.566,5.325c3.397,0 5.739,-0.537 8.634,-1.476l0.141,-0.045l0,-2.468l-0.261,0.082c-0.181,0.054 -0.355,0.111 -0.53,0.166ZM184.115,44.728c0,5.699 -2.826,9.104 -7.552,9.104c-3.001,0 -4.938,-2.198 -4.938,-5.593c0,-5.006 4.316,-7.78 12.49,-8.035l0,4.524ZM162.368,55.872c-4.7,0 -5.918,-1.418 -5.918,-6.897l0,-18.617c0,-5.746 -1.231,-11.058 -10.165,-11.058c-7.643,0 -11.506,6.316 -13.266,9.428l0,-27.834l-14.777,2.015l0,2.179l0.206,0c3.073,0 5.918,0.767 5.918,6.329l0,37.558c0,5.479 -1.218,6.897 -5.918,6.897l-0.206,0l0,2.205l20.9,0l0,-2.205l-0.206,0c-4.7,0 -5.917,-1.418 -5.917,-6.897l0,-10.861c0,-5.179 5.282,-13.432 9.674,-13.432c4.007,0 5.104,2.641 5.104,12.288l0,12.005c0,5.479 -1.218,6.897 -5.922,6.897l-0.202,0l0,2.205l20.898,0l0,-2.205l-0.203,0ZM115.453,27.911c0,-5.318 -6.972,-8.611 -13.43,-8.611c-10.712,0 -16.858,6.591 -16.858,18.078c0,14.077 6.704,21.511 19.388,21.511c5.581,0 8.997,-1.24 10.54,-1.975l0.114,-0.058l0,-3.342l-0.261,0.077c-1.022,0.3 -4.141,1.219 -7.208,1.219c-9.783,0 -13.267,-9.889 -13.267,-19.146c0,-8.865 2.256,-13.182 6.897,-13.182c1.574,0 2.94,0.194 3.728,2.558c0.113,0.32 0.181,0.845 0.263,1.438c0.297,2.264 0.799,6.047 4.909,6.047c2.498,0 5.185,-1.444 5.185,-4.614ZM87.16,55.872c-4.7,0 -5.918,-1.418 -5.918,-6.897l0,-29.708l-14.778,2.015l0,2.179l0.207,0c2.864,0 5.917,0.487 5.917,6.323l0,19.191c0,4.986 -1.038,6.589 -4.757,6.846l-0.032,0c-5.666,0 -6.733,-1.367 -6.733,-7.582l0,-35.107c0,-6.216 1.067,-7.391 6.733,-7.391l0.206,0l0,-2.449l-18.308,0l-15.859,44.404l-15.644,-44.263l-0.046,-0.141l-18.148,0l0,2.449l0.206,0c5.666,0 6.732,1.175 6.732,7.391l0,35.107c0,6.215 -1.066,7.384 -6.732,7.384l-0.206,0l0,2.454l19.431,0l0,-2.454l-0.205,0c-5.728,0 -6.734,-1.1 -6.734,-7.384l0,-37.736l16.908,47.441l0.05,0.133l6.004,0l16.959,-47.574l0,37.736c0,6.215 -1.07,7.384 -6.736,7.384l-0.203,0l0,2.454l41.892,0l0,-2.205l-0.206,0ZM82.384,7.748c0,-2.959 -2.345,-5.273 -5.343,-5.273c-2.956,0 -5.269,2.314 -5.269,5.273c0,3.043 2.264,5.345 5.269,5.345c2.998,0 5.343,-2.346 5.343,-5.345Z" style="fill:#054fa3;fill-rule:nonzero;"/><path d="M400.508,35.134l0,-0.204c0,-10.375 -5.095,-15.637 -15.144,-15.637c-11.293,0 -17.262,6.399 -17.262,18.494c0,13.412 7.363,21.108 20.199,21.108c5.543,0 9.908,-1.609 11.338,-2.141l0.136,-0.045l0,-3.375l-0.275,0.102c-2.511,0.922 -4.946,1.375 -7.438,1.375c-10.729,0 -14.603,-10.126 -14.657,-19.677l23.103,0ZM391.856,31.375l-14.451,0c0.068,-3.196 1.722,-8.892 7.637,-8.892c4.596,0 6.763,2.826 6.814,8.892ZM372.436,17.375c0,-2.627 -2.027,-4.691 -4.61,-4.691c-4.863,0 -7.511,5.344 -9.089,8.527l-0.149,0.301c-2.35,-1.164 -5.046,-2.219 -8.721,-2.219c-9.546,0 -15.467,5.21 -15.467,13.598c0,6.392 3.316,8.918 5.625,10.579c-0.172,0.218 -0.394,0.485 -0.648,0.793c-1.556,1.886 -4.168,5.037 -4.168,8.547c0,1.067 0.29,1.891 0.672,2.583c-0.593,0.172 -1.188,0.312 -1.768,0.312c-2.566,0 -3.472,-1.718 -3.472,-6.571l0,-16.243c0,-9.916 -3.728,-13.598 -13.758,-13.598c-7.524,0 -15.141,2.96 -15.141,8.612c0,3.003 2.514,4.372 4.855,4.372c3.799,0 4.361,-2.494 4.898,-4.904c0.57,-2.518 1.097,-4.89 5.063,-4.89c5.427,0 5.427,6.015 5.427,10.408l0,3.887c-5.506,0.261 -21.792,1.118 -21.792,12.605c0,5.242 4.882,9.512 10.891,9.512c5.896,0 9.416,-3.528 11.073,-5.33c0.609,2.646 1.785,5.33 6.565,5.33c3.395,0 5.74,-0.543 8.634,-1.482l0.122,-0.04c0.015,0.02 0.034,0.04 0.054,0.053c0.064,0.063 0.127,0.127 0.193,0.187l-0.111,0.087c-1.961,1.63 -4.931,4.086 -4.931,7.761c0,3.803 4.64,9.838 17.097,9.838c13.038,0 21.104,-7.435 21.104,-14.326c0,-8.63 -7.846,-9.921 -12.531,-9.921l-12.735,0c-2.847,0 -4.122,-0.863 -4.122,-2.814c0,-1.271 0.829,-2.542 1.501,-3.431c1.403,0.517 3.334,1.188 6.87,1.188c9.297,0 15.303,-5.145 15.303,-13.104c0,-5.352 -2.177,-7.953 -4.353,-9.769l0.074,-0.14c0.613,-1.17 1.38,-2.628 2.69,-2.628c0.39,0 0.711,0.244 1.119,0.551c0.101,0.076 0.203,0.152 0.309,0.23c0.751,0.562 1.52,0.939 2.817,0.939c2.628,0 4.61,-2.02 4.61,-4.699ZM321.985,44.729c0,5.697 -2.82,9.103 -7.549,9.103c-2.999,0 -4.94,-2.199 -4.94,-5.594c0,-5.004 4.319,-7.779 12.489,-8.035l0,4.526ZM340.676,59.055l15.637,0c1.675,0 7.146,0.315 7.146,4.367c0,3.758 -5.798,8.125 -13.267,8.125c-7.49,0 -10.98,-4.896 -10.98,-8.209c0,-1.482 0.634,-2.773 1.464,-4.283ZM356.358,32.891c0,3.701 -0.848,9.921 -6.491,9.921c-4.604,0 -6.656,-3.062 -6.656,-9.921c0,-4.75 1.153,-10.408 6.656,-10.408c5.643,0 6.491,6.514 6.491,10.408ZM300.646,18.437c0,-9.909 -6.563,-15.145 -18.979,-15.145l-23.308,0l0,2.456l0.206,0c5.663,0 6.728,1.168 6.728,7.383l0,35.107c0,6.215 -1.065,7.391 -6.728,7.391l-0.206,0l0,2.448l23.262,0l0,-2.448l-0.201,0c-5.668,0 -6.734,-1.176 -6.734,-7.391l0,-14.248l2.814,0c8.091,0 23.146,0 23.146,-15.553ZM290.929,18.437c0,10.534 -6.155,11.391 -13.592,11.391l-2.651,0l0,-16.697c0,-4.878 0.672,-5.671 4.773,-5.671c7.268,0 11.47,1.796 11.47,10.977Z" style="fill:#6c6e70;fill-rule:nonzero;"/><rect x="0.086" y="83.795" width="5.651" height="25.701" style="fill:#6c6e70;fill-rule:nonzero;"/><path d="M10.167,90.887l4.859,0l0,2.592l0.108,0c1.296,-2.088 3.527,-3.096 5.687,-3.096c5.435,0 6.803,3.06 6.803,7.667l0,11.446l-5.111,0l0,-10.51c0,-3.06 -0.9,-4.572 -3.276,-4.572c-2.771,0 -3.959,1.548 -3.959,5.328l0,9.754l-5.111,0l0,-18.609Z" style="fill:#6c6e70;fill-rule:nonzero;"/><path d="M37.993,90.887l3.743,0l0,3.419l-3.743,0l0,9.214c0,1.729 0.432,2.161 2.159,2.161c0.54,0 1.044,-0.037 1.584,-0.145l0,3.996c-0.863,0.144 -1.98,0.18 -2.987,0.18c-3.132,0 -5.868,-0.72 -5.868,-4.428l0,-10.978l-3.095,0l0,-3.419l3.095,0l0,-5.579l5.112,0l0,5.579Z" style="fill:#6c6e70;fill-rule:nonzero;"/><path d="M56.712,98.194c-0.468,-2.592 -1.584,-3.959 -4.067,-3.959c-3.24,0 -4.176,2.519 -4.248,3.959l8.315,0ZM48.397,101.433c0.144,3.24 1.728,4.715 4.571,4.715c2.052,0 3.708,-1.259 4.032,-2.411l4.5,0c-1.44,4.391 -4.5,6.263 -8.711,6.263c-5.868,0 -9.503,-4.031 -9.503,-9.791c0,-5.579 3.851,-9.826 9.503,-9.826c6.335,0 9.394,5.327 9.034,11.05l-13.426,0Z" style="fill:#6c6e70;fill-rule:nonzero;"/><path d="M64.849,90.887l4.86,0l0,3.455l0.071,0c0.936,-2.34 3.456,-3.959 5.94,-3.959c0.36,0 0.792,0.072 1.115,0.18l0,4.751c-0.467,-0.108 -1.223,-0.18 -1.835,-0.18c-3.744,0 -5.04,2.7 -5.04,5.975l0,8.387l-5.111,0l0,-18.609Z" style="fill:#6c6e70;fill-rule:nonzero;"/><path d="M78.997,90.887l5.111,0l0,18.609l-5.111,0l0,-18.609ZM84.108,88.007l-5.111,0l0,-4.212l5.111,0l0,4.212Z" style="fill:#6c6e70;fill-rule:nonzero;"/><path d="M88.285,90.887l4.823,0l0,2.52l0.072,0c1.332,-1.909 3.276,-3.024 5.687,-3.024c2.341,0 4.428,0.864 5.436,3.096c1.08,-1.62 3.024,-3.096 5.615,-3.096c3.96,0 6.803,1.835 6.803,6.659l0,12.454l-5.111,0l0,-10.546c0,-2.484 -0.216,-4.536 -3.131,-4.536c-2.88,0 -3.42,2.376 -3.42,4.716l0,10.366l-5.112,0l0,-10.438c0,-2.16 0.144,-4.644 -3.095,-4.644c-1.008,0 -3.456,0.648 -3.456,4.284l0,10.798l-5.111,0l0,-18.609Z" style="fill:#6c6e70;fill-rule:nonzero;"/></g></svg>