<?xml version="1.0" encoding="utf-8"?>
<!-- Generator: Adobe Illustrator 17.0.0, SVG Export Plug-In . SVG Version: 6.00 Build 0)  -->
<!DOCTYPE svg PUBLIC "-//W3C//DTD SVG 1.1//EN" "http://www.w3.org/Graphics/SVG/1.1/DTD/svg11.dtd">
<svg version="1.1" id="Ebene_1" xmlns="http://www.w3.org/2000/svg" xmlns:xlink="http://www.w3.org/1999/xlink" x="0px" y="0px"
	 width="2048px" height="2048px" viewBox="0 0 2048 2048" enable-background="new 0 0 2048 2048" xml:space="preserve">
<g>
	<rect x="0" fill="#010202" width="2048" height="2048"/>
	<path fill="#FFFFFF" d="M283.057,1268.206h73.539v-194.255c0-12.488-1.388-23.588-2.775-34.688s-5.55-20.813-11.1-30.526
		c-5.55-8.325-12.488-15.263-22.201-20.813c-9.713-5.55-22.201-8.325-37.463-8.325c-12.488,0-23.588,1.388-33.301,5.55
		c-9.713,4.163-18.038,8.325-26.363,13.875c-8.325,6.938-15.263,13.875-20.813,22.201c-5.55,8.325-11.1,18.038-16.65,27.751h-1.388
		v-62.439h-74.927v280.282h74.927v-111.003c0-6.938,0-13.875,1.388-22.201c0-8.325,1.388-18.038,4.163-27.751
		c1.388-9.713,4.163-18.038,6.938-27.751c2.775-8.325,6.938-16.65,11.1-24.976c4.163-6.938,11.1-12.488,16.65-18.038
		c6.938-4.163,13.875-6.938,23.588-6.938c8.325,0,15.263,1.387,19.425,6.938c4.163,4.163,6.938,9.713,9.713,15.263
		c1.388,6.938,2.775,12.488,2.775,19.425c0,6.938,0,13.875,0,19.426v178.992H283.057z M444.011,1097.539h173.442v-11.1
		c0-18.038-2.775-33.301-8.325-47.176c-5.55-13.875-13.875-24.976-23.588-33.301s-22.201-15.263-37.463-19.425
		c-15.263-4.163-30.526-6.938-48.564-6.938c-22.201,0-41.626,2.775-58.276,9.713c-16.65,5.55-29.138,15.263-40.238,26.363
		c-11.1,11.1-18.038,26.363-23.588,41.626c-5.55,16.65-6.938,36.076-6.938,56.889c0,22.2,2.775,44.401,8.325,63.827
		c5.55,19.425,15.263,36.076,27.751,51.339c12.488,13.875,27.751,24.976,45.789,33.301s40.238,12.488,66.602,12.488
		c9.713,0,18.038,0,26.363-1.387c8.325,0,15.263-1.388,22.201-2.775c6.938-1.388,13.875-4.163,22.201-5.55
		c6.938-2.775,15.263-5.55,23.588-9.713v-29.138c-9.713,2.775-19.425,6.938-27.751,8.325c-9.713,2.775-19.425,4.163-29.138,4.163
		c-12.488,0-23.588-1.388-34.688-5.55c-9.713-4.163-19.425-9.713-27.751-16.65c-8.325-6.938-15.263-15.263-22.201-24.976
		c-6.938-9.713-11.1-19.425-15.263-29.138c-4.163-11.1-6.938-20.813-9.713-31.913
		C445.398,1118.352,444.011,1107.252,444.011,1097.539z M546.688,1067.014H444.011c1.388-6.938,2.775-13.875,5.55-20.813
		c2.775-6.938,5.55-13.875,9.713-19.425c4.163-5.55,9.713-9.713,15.263-13.875c6.938-2.775,13.875-5.55,22.201-5.55
		c8.325,0,15.263,1.388,22.201,5.55c5.55,2.775,11.1,8.325,15.263,13.875c4.163,5.55,6.938,12.488,8.325,19.425
		C545.301,1053.138,546.688,1060.076,546.688,1067.014z M832.52,1268.206h86.027L810.32,1118.352l97.127-131.816H832.52
		l-56.889,79.089l-54.114-77.702H635.49l95.74,134.591l-108.228,147.078h76.314l67.989-94.352L832.52,1268.206z M1098.927,1268.206
		h5.55h67.989h5.55v-111.003c0-5.55,0-12.488,0-20.813s1.388-16.65,1.388-26.363c1.387-9.713,2.775-18.038,5.55-27.751
		c2.775-9.713,5.55-18.038,9.713-24.976c4.163-6.938,8.325-13.875,15.263-18.038c5.55-4.163,13.875-6.938,22.201-6.938
		s15.263,1.387,19.426,6.938c4.163,4.163,6.938,9.713,9.713,15.263c1.388,6.938,2.775,12.488,2.775,19.426
		c0,6.938,0,13.875,0,19.426v174.829h73.539V1141.94c0-5.55,0-12.488,0-19.425c0-6.938,1.388-15.263,2.775-23.588
		c1.388-8.325,2.775-16.65,5.55-23.588c2.775-8.325,5.55-15.263,9.713-20.813c4.163-6.938,8.325-11.1,15.263-15.263
		c5.55-4.163,12.488-5.55,20.813-5.55c6.938,0,12.488,1.387,16.65,5.55c4.163,4.163,6.938,8.325,9.713,13.875
		c1.388,5.55,2.775,11.1,4.163,18.038c0,5.55,1.387,11.1,1.387,16.65v181.767h74.927v-188.705c0-12.488-1.388-24.976-2.775-36.076
		c-1.388-12.488-5.55-22.201-11.1-31.913c-5.55-9.713-12.488-16.65-22.2-22.201c-9.713-5.55-22.201-8.325-37.463-8.325
		c-12.488,0-22.201,1.388-30.526,5.55c-8.325,2.775-15.263,8.325-22.201,13.875c-6.938,5.55-12.488,12.488-16.65,20.813
		c-5.55,8.325-9.713,16.65-13.875,26.363h-1.388c-1.387-9.713-4.163-19.426-8.325-26.363c-4.163-8.325-8.325-15.263-15.263-20.813
		c-5.55-5.55-13.875-11.1-22.201-13.875c-8.325-2.775-18.038-5.55-29.138-5.55s-20.813,1.388-30.526,5.55
		c-8.325,4.163-16.65,8.325-23.588,15.263c-6.938,6.938-13.875,13.875-18.038,22.201c-5.55,8.325-8.325,16.65-12.488,26.363h-1.387
		v-62.439h-5.55h-67.989h-5.55v111.003c0,5.55,0,13.875-1.388,22.2c0,8.325-1.387,16.65-2.775,26.363
		c-1.387,9.713-4.163,18.038-6.938,27.751s-5.55,18.038-11.1,24.976c-4.163,6.938-9.713,13.875-16.65,18.038
		c-5.55,4.163-13.875,6.938-22.201,6.938c-8.325,0-15.263-1.387-19.425-5.55c-4.163-4.163-8.325-9.713-11.1-15.263
		c-2.775-5.55-4.163-12.488-5.55-19.426c-1.388-6.938-1.388-13.875-1.388-19.425V987.924H928.26v192.867
		c0,12.488,1.388,24.976,4.163,37.463c2.775,11.1,6.938,20.813,12.488,29.138c5.55,8.325,13.875,15.263,24.976,19.425
		c9.713,5.55,22.201,6.938,38.851,6.938c12.488,0,22.201-1.388,31.913-5.55c9.713-4.163,16.65-8.325,24.976-15.263
		c6.938-6.938,13.875-13.875,19.426-22.2s11.1-18.038,15.263-26.363h1.388v63.827H1098.927z"/>
	<path fill="#FFFFFF" d="M185.93,1484.661c0,5.55-1.388,11.1-2.775,16.65c-2.775,5.55-5.55,9.713-11.1,12.488
		c-2.775,1.388-6.938,2.775-12.488,2.775c-4.163,0-8.325,0-12.488,0h-6.938h-1.388h-1.388c0-9.713,0-20.813-1.388-30.526v-30.526
		c1.388,0,4.163,0,5.55,0c1.388,0,4.163,0,5.55,0c11.1,0,20.813,1.388,27.751,5.55
		C181.767,1463.848,185.93,1472.173,185.93,1484.661z M180.379,1404.184c0,11.1-2.775,18.038-8.325,23.588
		c-5.55,5.55-13.875,8.325-23.588,8.325h-11.1v-43.014v-8.325c0-2.775,0-5.55,0-8.325c2.775,0,4.163,0,6.938,0
		c2.775,0,5.55,0,6.938,0c9.713,0,16.65,1.387,22.201,6.938C177.604,1387.534,180.379,1394.472,180.379,1404.184z M212.293,1483.274
		c0-12.488-4.163-22.201-9.713-29.138c-6.938-6.938-16.65-11.1-29.138-12.488c11.1-1.387,19.425-6.938,24.976-13.875
		c5.55-6.938,6.938-16.65,6.938-27.751c0-15.263-4.163-26.363-13.875-31.913c-8.325-5.55-20.813-9.713-34.688-8.325
		c-8.325,0-15.263,0-23.588,0c-6.938,0-15.263,0-22.201,0l-1.388,1.388c0,8.325,1.388,16.65,1.388,24.976c0,8.325,0,16.65,0,24.976
		v38.851c0,12.488,0,26.363,0,38.851c0,6.938,0,15.263,0,22.201s0,15.263,0,22.201l1.388,1.387c4.163,0,9.713,0,13.875,0
		c4.163,0,9.713,0,13.875,0c8.325,0,16.65,0,24.976-1.387c8.325-1.388,16.65-2.775,23.588-6.938
		c6.938-4.163,12.488-9.713,18.038-18.038c1.388-4.163,2.775-8.325,4.163-12.488
		C212.293,1492.986,212.293,1487.436,212.293,1483.274z M296.932,1455.523h-44.401c0-5.55,1.388-11.1,2.775-15.263
		c1.388-5.55,4.163-9.713,8.325-13.875c1.388-1.388,4.163-2.775,5.55-4.163c2.775-1.388,4.163-1.388,6.938-1.388
		c5.55,0,11.1,1.388,13.875,5.55s5.55,8.325,5.55,13.875C296.932,1445.81,296.932,1451.36,296.932,1455.523z M320.52,1470.786
		c0-11.1,0-20.813-2.775-31.913c-1.388-11.1-6.938-19.425-16.65-26.363c-4.163-2.775-8.325-4.163-12.488-5.55
		c-4.163-1.387-8.325-1.387-13.875-1.387c-12.488,0-22.201,4.163-29.138,11.1c-6.938,6.938-12.488,15.263-15.263,24.976
		c-2.775,9.713-4.163,20.813-4.163,31.913c0,12.488,1.388,22.201,5.55,33.301c4.163,9.713,9.713,18.038,18.038,23.588
		c8.325,5.55,19.425,8.325,31.913,9.713c5.55,0,11.1,0,16.65-1.387c5.55-1.388,11.1-2.775,15.263-5.55l1.388-1.388
		c0-2.775,0-5.55,0-8.325l1.388-8.325l-1.388-1.388c-4.163,2.775-8.325,5.55-12.488,6.938c-4.163,1.388-9.713,2.775-13.875,2.775
		c-13.875,0-23.588-5.55-29.138-13.875c-5.55-8.325-8.325-19.426-8.325-31.913h67.989L320.52,1470.786z M405.16,1406.959
		l-1.388-1.387c-1.388,0-2.775-1.388-4.163-1.388s-2.775,0-4.163,0c-6.938,0-13.875,2.775-18.038,6.938
		c-4.163,5.55-6.938,11.1-9.713,16.65c0-4.163,0-6.938,0-11.1c0-4.163,0-6.938,0-11.1l-1.388-1.388
		c-4.163,1.388-8.325,1.388-12.488,2.775c-4.163,1.388-8.325,1.388-12.488,1.388l-1.388,1.387c1.388,11.1,1.388,22.201,1.388,34.688
		c0,11.1,0,22.201,0,33.301c0,9.713,0,18.038,0,27.751c0,9.713,0,18.038-1.388,27.751l1.388,1.387h11.1c4.163,0,8.325,0,11.1,0
		l1.388-1.387l-1.388-33.301c0-11.1,0-22.201,0-34.688c0-5.55,0-11.1,1.388-16.65c1.388-5.55,4.163-11.1,8.325-15.263
		c1.388-1.388,2.775-2.775,5.55-2.775c1.388-1.388,4.163-1.388,5.55-1.388c2.775,0,4.163,0,5.55,1.388
		c1.388,0,4.163,1.387,5.55,2.775l1.388-1.388c0-4.163,0-8.325,1.388-12.488C403.772,1415.285,403.772,1411.122,405.16,1406.959z
		 M480.087,1508.249c-2.775,2.775-5.55,5.55-9.713,6.938c-2.775,1.387-6.938,2.775-11.1,2.775c-6.938,0-11.1-2.775-15.263-6.938
		c-4.163-4.163-5.55-9.713-5.55-15.263c0-8.325,2.775-15.263,5.55-19.426c4.163-4.163,9.713-6.938,15.263-8.325
		c5.55-1.387,12.488-2.775,19.426-4.163v44.401H480.087z M505.062,1533.225c-1.388-15.263-1.388-29.138-1.388-44.401v-44.401
		c0-13.875-2.775-23.588-8.325-30.526c-5.55-6.938-15.263-9.713-29.138-9.713c-6.938,0-12.488,0-18.038,1.388
		c-5.55,1.387-12.488,2.775-18.038,5.55l-1.388,1.387c0,2.775,0,5.55,0,8.325s0,5.55-1.388,8.325l1.388,1.387
		c4.163-2.775,9.713-5.55,13.875-6.938c5.55-1.388,11.1-2.775,15.263-2.775c8.325,0,13.875,1.387,16.65,5.55
		c2.775,4.163,4.163,9.713,4.163,18.038v2.775l-11.1,1.388c-9.713,1.387-18.038,4.163-26.363,6.938
		c-8.325,2.775-15.263,8.325-19.426,15.263c-5.55,6.938-6.938,15.263-6.938,24.976c0,11.1,2.775,20.813,9.713,27.751
		c5.55,6.938,15.263,11.1,26.363,11.1c5.55,0,11.1-1.387,15.263-2.775c5.55-1.387,9.713-4.163,13.875-8.325v8.325l1.388,1.388
		c6.938,0,13.875,0,20.813,0L505.062,1533.225z M579.989,1515.187l-1.388-1.388c-1.388,1.388-2.775,1.388-4.163,2.775
		c-1.388,0-2.775,0-4.163,0c-6.938,0-9.713-2.775-11.1-8.325s-1.388-9.713-1.388-15.263v-69.377c2.775,0,6.938,0,9.713,0
		c2.775,0,6.938,0,9.713,0l1.388-1.387c0-5.55,0-11.1,1.388-15.263l-1.388-1.387h-20.813c0-5.55,0-12.488,0-18.038
		s0-12.488,1.388-18.038l-1.388-1.388l-11.1,2.775c-4.163,1.388-6.938,1.388-11.1,2.775l-1.388,1.388c0,4.163,0,8.325,0,12.488
		c0,4.163,0,8.325,0,12.488v2.775c0,1.388,0,2.775,0,2.775h-6.938c-1.388,0-4.163,0-5.55,0l-1.388,1.388c0,2.775,0,5.55,0,8.325
		c0,2.775,0,5.55,0,8.325l1.388,1.388c2.775,0,4.163,0,6.938,0s4.163,0,6.938,0v37.463c0,6.938,0,12.488,0,19.425
		c0,6.938,0,12.488,0,19.426c0,9.713,1.388,19.426,5.55,24.976c4.163,6.938,11.1,9.713,22.201,11.1c2.775,0,5.55,0,8.325,0
		s5.55-1.387,8.325-1.387l1.388-1.388v-8.325C579.989,1520.737,579.989,1517.962,579.989,1515.187z M685.442,1533.225
		c0-5.55,0-11.1,0-16.65c0-5.55,0-11.1,0-16.65v-59.664c0-5.55,0-11.1,0-15.263v-15.263l-1.388-1.387c-4.163,0-6.938,0-11.1,0
		s-6.938,0-11.1,0l-1.388,1.387c0,12.488,1.388,23.588,1.388,36.076c0,12.488,0,23.588,0,36.076c0,4.163,0,8.325,0,12.488
		c0,4.163,0,8.325,0,12.488c-4.163,4.163-6.938,6.938-11.1,8.325c-4.163,1.387-8.325,2.775-12.488,2.775
		c-8.325,0-15.263-4.163-16.65-9.713c-1.388-6.938-2.775-13.875-2.775-20.813c0-13.875,0-26.363,0-40.239s0-26.363,1.388-40.239
		l-1.388-1.387c-4.163,0-6.938,0-11.1,0s-6.938,0-11.1,0l-1.388,1.387c0,4.163,0,8.325,0,12.488c0,4.163,0,8.325,0,12.488v55.501
		c0,8.325,0,15.263,2.775,22.201c1.388,6.938,4.163,12.488,9.713,18.038c4.163,4.163,12.488,6.938,22.201,6.938
		c6.938,0,13.875-1.387,19.426-4.163c5.55-2.775,11.1-5.55,15.263-11.1v12.488l1.388,1.388h11.1c4.163,0,6.938,0,11.1,0H685.442z
		 M804.77,1531.837c0-8.325,0-16.65-1.388-26.363v-26.363c0-4.163,0-8.325,0-12.488s0-8.325,0-12.488c0-4.163,0-6.938,0-11.1
		s0-6.938-1.388-11.1c-1.388-8.325-4.163-16.65-8.325-22.201c-5.55-5.55-12.488-8.325-20.813-8.325
		c-6.938,0-13.875,1.387-19.426,4.163c-5.55,2.775-11.1,6.938-16.65,11.1c0-2.775,0-4.163,0-6.938s0-4.163,0-6.938l-1.388-1.388
		c-4.163,0-8.325,1.388-12.488,1.388c-4.163,0-8.325,1.387-12.488,1.387l-1.388,1.388c1.388,9.713,1.388,20.813,1.388,30.526
		c0,9.713,0,20.813,0,30.526v19.426c0,6.938,0,13.875,0,20.813s0,13.875,0,20.813l1.388,1.388h11.1c4.163,0,8.325,0,11.1,0
		l1.388-1.388c0-5.55,0-9.713,0-13.875c0-4.163,0-9.713,0-13.875v-26.363c0-8.325,0-16.65,0-26.363v-6.938c0-2.775,0-5.55,0-6.938
		c2.775-2.775,6.938-6.938,11.1-8.325c4.163-2.775,9.713-4.163,13.875-4.163c5.55,0,8.325,1.388,11.1,4.163
		c2.775,2.775,4.163,6.938,5.55,11.1c0,2.775,0,4.163,0,6.938s0,4.163,0,6.938c0,8.325,0,15.263,0,23.588v23.588
		c0,5.55,0,11.1,0,16.65c0,5.55,0,11.1,0,15.263l1.388,1.387h11.1c4.163,0,8.325,0,11.1,0L804.77,1531.837z M896.347,1551.263
		c0,6.938-2.775,12.488-8.325,15.263s-11.1,5.55-16.65,5.55c-6.938,0-12.488-1.387-16.65-5.55c-5.55-4.163-6.938-8.325-8.325-15.263
		c0-5.55,1.388-11.1,4.163-15.263c2.775-4.163,6.938-8.325,11.1-11.1c4.163,1.388,9.713,2.775,13.875,5.55
		c5.55,1.387,9.713,4.163,13.875,8.325C893.572,1541.55,894.959,1545.713,896.347,1551.263z M890.797,1451.36
		c0,6.938-1.388,12.488-4.163,18.038c-2.775,5.55-8.325,8.325-15.263,8.325c-8.325,0-12.488-2.775-16.65-9.713
		c-2.775-5.55-5.55-12.488-4.163-19.425c0-6.938,1.388-12.488,4.163-19.426c2.775-5.55,8.325-8.325,15.263-9.713
		c5.55,0,9.713,1.387,12.488,5.55c2.775,2.775,5.55,6.938,6.938,11.1C890.797,1441.648,890.797,1447.198,890.797,1451.36z
		 M922.71,1408.347l-1.388-1.388h-43.014c-4.163,0-8.325,0-12.488,0s-8.325,1.388-12.488,2.775
		c-8.325,2.775-15.263,8.325-19.425,16.65c-4.163,6.938-6.938,15.263-6.938,24.976c0,8.325,1.388,15.263,5.55,20.813
		c4.163,6.938,9.713,11.1,16.65,15.263c-2.775,4.163-4.163,8.325-6.938,11.1c-2.775,4.163-4.163,8.325-6.938,11.1v2.775
		c1.388,1.387,2.775,2.775,5.55,2.775c1.388,1.387,4.163,1.387,5.55,2.775c-5.55,4.163-11.1,8.325-15.263,13.875
		c-4.163,5.55-6.938,12.488-6.938,19.426c0,8.325,2.775,15.263,6.938,19.426c4.163,5.55,11.1,8.325,18.038,11.1
		c6.938,2.775,13.875,2.775,20.813,2.775c8.325,0,15.263-1.388,23.588-4.163c6.938-2.775,13.875-6.938,19.425-12.488
		c5.55-5.55,6.938-12.488,6.938-22.201c0-9.713-2.775-18.038-9.713-23.588c-5.55-5.55-13.875-9.713-22.201-12.488
		c-8.325-2.775-16.65-5.55-24.976-8.325l-5.55-2.775v-1.388l4.163-9.713c1.388,0,2.775,0,4.163,0c1.388,0,2.775,0,4.163,0
		c12.488,0,22.201-4.163,29.138-11.1c6.938-6.938,11.1-16.65,12.488-29.138c0-5.55-1.388-11.1-2.775-16.65
		c-2.775-5.55-5.55-9.713-11.1-12.488c2.775,0,6.938,0,9.713,0s6.938,0,9.713,1.388l1.388-1.388v-6.938
		C922.71,1412.509,922.71,1409.734,922.71,1408.347z M1067.014,1502.699c-4.163,4.163-6.938,6.938-11.1,9.713
		c-4.163,2.775-8.325,4.163-13.875,4.163c-6.938,0-12.488-2.775-16.65-8.325c-4.163-5.55-6.938-11.1-6.938-18.038
		c0-6.938,2.775-13.875,5.55-18.038c4.163-4.163,8.325-8.325,15.263-12.488L1067.014,1502.699z M1064.238,1404.184
		c0,6.938-2.775,12.488-5.55,16.65c-4.163,4.163-8.325,8.325-13.875,12.488c-2.775-4.163-5.55-8.325-6.938-13.875
		c-2.775-4.163-2.775-9.713-2.775-15.263c0-5.55,1.388-9.713,4.163-12.488c2.775-4.163,6.938-5.55,11.1-5.55
		c5.55,0,8.325,1.388,11.1,5.55C1062.851,1395.859,1064.238,1400.022,1064.238,1404.184z M1114.19,1533.225
		c-4.163-5.55-6.938-9.713-11.1-15.263c-4.163-4.163-6.938-9.713-11.1-15.263c4.163-4.163,6.938-9.713,9.713-13.875
		c2.775-5.55,5.55-9.713,8.325-15.263v-2.775c-2.775-2.775-4.163-5.55-5.55-8.325c-1.387-2.775-4.163-5.55-5.55-8.325h-1.387
		c-1.388,5.55-2.775,11.1-5.55,16.65c-2.775,5.55-5.55,9.713-9.713,15.263c-4.163-6.938-8.325-12.488-12.488-18.038
		c-4.163-5.55-8.325-12.488-12.488-19.425c1.388-1.388,4.163-2.775,5.55-4.163c1.387-1.387,4.163-2.775,5.55-4.163
		c5.55-4.163,9.713-9.713,12.488-15.263c2.775-5.55,4.163-12.488,5.55-19.426c0-11.1-2.775-19.426-9.713-24.976
		c-6.938-5.55-15.263-8.325-24.976-8.325c-11.1,0-20.813,4.163-26.363,9.713c-6.938,6.938-9.713,15.263-9.713,26.363
		c0,6.938,1.388,13.875,4.163,19.426c2.775,5.55,6.938,12.488,11.1,18.038c-9.713,5.55-16.65,12.488-23.588,19.425
		c-6.938,6.938-9.713,16.65-9.713,27.751c0,12.488,4.163,22.201,11.1,30.526c6.938,8.325,18.038,12.488,30.526,12.488
		c8.325,0,15.263-1.388,22.201-5.55c6.938-2.775,13.875-6.938,19.426-12.488l4.163,6.938c1.388,2.775,2.775,4.163,5.55,6.938
		l2.775,1.388c4.163,0,8.325,0,12.488-1.388C1105.865,1533.225,1110.027,1533.225,1114.19,1533.225L1114.19,1533.225z
		 M1302.894,1531.837c-2.775-4.163-6.938-8.325-9.713-12.488s-6.938-8.325-9.713-13.875c-5.55-6.938-11.1-15.263-15.263-22.2
		c-5.55-6.938-11.1-15.263-15.263-23.588l-13.875-22.2c9.713-12.488,18.038-24.976,27.751-37.463
		c9.713-12.488,18.038-24.976,27.751-37.463v-1.388c-4.163,0-8.325,0-12.488,0s-8.325,0-12.488,0l-2.775,1.388
		c-4.163,5.55-6.938,12.488-11.1,18.038c-6.938,9.713-13.875,19.426-20.813,29.138c-6.938,9.713-13.875,19.426-20.813,29.138
		c0-8.325,0-16.65,0-24.976v-24.976c0-4.163,0-9.713,0-13.875c0-4.163,0-9.713,0-13.875l-1.388-1.387c-8.325,0-16.65,0-24.976,0
		l-1.388,1.387c0,18.038,1.388,34.688,1.388,52.726c0,18.038,0,36.076,0,52.726v29.138c0,5.55,0,12.488,0,18.038v18.038l1.387,1.388
		c8.325,0,16.65,0,24.976,0l1.387-1.388c0-13.875-1.387-29.138-1.387-43.014v-43.014l16.65,26.363
		c5.55,8.325,11.1,18.038,18.038,26.363c4.163,5.55,8.325,11.1,11.1,16.65c4.163,5.55,6.938,11.1,11.1,16.65l1.388,1.388
		c5.55,0,9.713,0,15.263,0h13.875L1302.894,1531.837z M1376.434,1406.959l-1.388-1.387c-1.387,0-2.775-1.388-4.163-1.388
		s-2.775,0-4.163,0c-6.938,0-13.875,2.775-18.038,6.938c-4.163,5.55-6.938,11.1-9.713,16.65c0-4.163,0-6.938,0-11.1
		c0-4.163,0-6.938,0-11.1l-1.388-1.388c-4.163,1.388-8.325,1.388-12.488,2.775c-4.163,1.388-8.325,1.388-12.488,1.388l-1.388,1.387
		c1.388,11.1,1.388,22.201,1.388,34.688c0,11.1,0,22.201,0,33.301c0,9.713,0,18.038,0,27.751c0,9.713,0,18.038-1.388,27.751
		l1.388,1.387h11.1c4.163,0,8.325,0,11.1,0l1.388-1.387l-1.388-33.301c0-11.1,0-22.201,0-34.688c0-5.55,0-11.1,1.388-16.65
		c1.387-5.55,4.163-11.1,8.325-15.263c1.387-1.388,2.775-2.775,5.55-2.775c1.387-1.388,4.163-1.388,6.938-1.388
		c1.388,0,4.163,0,5.55,1.388c1.387,0,4.163,1.387,5.55,2.775l1.387-1.388c0-4.163,0-8.325,1.388-12.488
		C1375.046,1415.285,1375.046,1411.122,1376.434,1406.959z M1456.911,1455.523h-44.401c0-5.55,1.388-11.1,2.775-15.263
		c1.388-5.55,4.163-9.713,8.325-13.875c1.387-1.388,4.163-2.775,5.55-4.163c2.775-1.388,4.163-1.388,6.938-1.388
		c5.55,0,11.1,1.388,13.875,5.55s5.55,8.325,5.55,13.875C1456.911,1445.81,1456.911,1451.36,1456.911,1455.523z M1481.886,1470.786
		c0-11.1,0-20.813-2.775-31.913c-1.388-11.1-6.938-19.425-16.65-26.363c-4.163-2.775-8.325-4.163-12.488-5.55
		c-4.163-1.387-8.325-1.387-13.875-1.387c-12.488,0-22.201,4.163-29.138,11.1c-6.938,6.938-12.488,15.263-15.263,24.976
		s-4.163,20.813-4.163,31.913c0,12.488,1.388,22.201,5.55,33.301c4.163,9.713,9.713,18.038,18.038,23.588
		c8.325,5.55,19.426,8.325,31.913,9.713c5.55,0,11.1,0,16.65-1.387c5.55-1.388,11.1-2.775,15.263-5.55l1.388-1.388
		c0-2.775,0-5.55,0-8.325l1.387-8.325l-1.387-1.388c-4.163,2.775-8.325,5.55-12.488,6.938c-4.163,1.388-9.713,2.775-13.875,2.775
		c-13.875,0-23.588-5.55-29.138-13.875s-8.325-19.426-8.325-31.913h67.989L1481.886,1470.786z M1560.976,1508.249
		c-2.775,2.775-5.55,5.55-9.713,6.938c-2.775,1.387-6.938,2.775-11.1,2.775c-6.938,0-11.1-2.775-15.263-6.938
		c-2.775-4.163-5.55-9.713-5.55-15.263c0-8.325,2.775-15.263,6.938-19.426c4.163-4.163,9.713-6.938,15.263-8.325
		c6.938-1.387,12.488-2.775,19.425-4.163V1508.249z M1585.951,1533.225c-1.388-15.263-1.388-29.138-1.388-44.401v-44.401
		c0-13.875-2.775-23.588-8.325-30.526c-5.55-6.938-15.263-9.713-29.138-9.713c-5.55,0-12.488,0-18.038,1.388
		c-5.55,1.387-12.488,2.775-18.038,5.55l-1.388,1.387c0,2.775,0,5.55,0,8.325s0,5.55-1.387,8.325l1.387,1.387
		c4.163-2.775,9.713-5.55,13.875-6.938c5.55-1.388,11.1-2.775,15.263-2.775c8.325,0,13.875,1.387,16.65,5.55
		c2.775,4.163,4.163,9.713,4.163,18.038v2.775l-11.1,1.388c-9.713,1.387-18.038,4.163-26.363,6.938s-15.263,8.325-19.426,15.263
		c-5.55,6.938-6.938,15.263-6.938,24.976c0,11.1,2.775,20.813,9.713,27.751c5.55,6.938,15.263,11.1,26.363,11.1
		c5.55,0,11.1-1.387,15.263-2.775c5.55-1.387,9.713-4.163,13.875-8.325v8.325l1.388,1.388c6.938,0,13.875,0,20.813,0
		L1585.951,1533.225z M1660.878,1515.187l-1.388-1.388c-1.387,1.388-2.775,1.388-4.163,2.775c-1.388,0-2.775,0-4.163,0
		c-6.938,0-9.713-2.775-11.1-8.325s-1.388-9.713-1.388-15.263v-69.377c2.775,0,6.938,0,9.713,0c2.775,0,6.938,0,9.713,0l1.387-1.387
		c0-5.55,0-11.1,1.388-15.263l-1.388-1.387h-20.813c0-5.55,0-12.488,0-18.038s0-12.488,1.388-18.038l-2.775-1.388l-11.1,2.775
		c-4.163,1.388-6.938,1.388-11.1,2.775l-1.388,1.388c0,4.163,0,8.325,0,12.488c0,4.163,0,8.325,0,12.488v2.775
		c0,1.388,0,2.775,0,2.775h-5.55c-1.388,0-4.163,0-5.55,0l-1.388,1.388c0,2.775,0,5.55,0,8.325c0,2.775,0,5.55,0,8.325l1.388,1.388
		c2.775,0,4.163,0,6.938,0s4.163,0,6.938,0v37.463c0,6.938,0,12.488,0,19.425c0,6.938,0,12.488,0,19.426
		c0,9.713,1.388,19.426,5.55,24.976c4.163,6.938,11.1,9.713,22.201,11.1c2.775,0,5.55,0,8.325,0s5.55-1.387,8.325-1.387l1.387-1.388
		v-8.325C1660.878,1520.737,1660.878,1517.962,1660.878,1515.187z M1701.116,1531.837c0-8.325-1.387-16.65-1.387-24.976
		s0-16.65,0-24.976v-34.688c0-13.875,0-27.751,1.387-41.626l-1.387-1.388c-8.325,1.388-16.65,2.775-24.976,4.163l-1.387,1.387
		c1.387,18.038,1.387,36.076,1.387,54.114v26.363c0,13.875,0,27.751-1.387,41.626l1.387,1.388h8.325c2.775,0,5.55,0,8.325,0
		c1.388,0,2.775,0,4.163,0c1.387,0,2.775,0,4.163,0L1701.116,1531.837z M1699.729,1348.683l-1.388-1.387
		c-6.938,1.387-15.263,1.387-22.2,2.775l-1.388,1.387c0,2.775,0,6.938,0,11.1v5.55c0,1.388,0,2.775,0,5.55l1.388,1.387
		c4.163,0,6.938-1.387,11.1-1.387c4.163,0,6.938-1.388,11.1-1.388l1.388-1.387v-11.1
		C1699.729,1355.621,1699.729,1352.846,1699.729,1348.683z M1798.244,1468.011c0,5.55,0,12.488-1.388,20.813
		c-1.388,8.325-2.775,13.875-6.938,20.813c-4.163,5.55-9.713,8.325-16.65,9.713c-8.325,0-13.875-2.775-16.65-9.713
		c-4.163-5.55-5.55-12.488-6.938-20.813s-1.388-15.263-1.388-20.813c0-5.55,0-12.488,1.388-19.425
		c1.388-6.938,4.163-13.875,6.938-19.426c4.163-5.55,9.713-8.325,16.65-8.325c6.938,0,12.488,2.775,16.65,8.325
		s5.55,12.488,6.938,19.426C1798.244,1456.911,1798.244,1462.461,1798.244,1468.011z M1824.607,1472.173
		c0-11.1-1.388-22.201-4.163-33.301c-2.775-9.713-8.325-19.425-15.263-24.976c-6.938-6.938-18.038-9.713-30.526-9.713
		c-13.875,0-23.588,2.775-31.913,9.713c-8.325,6.938-12.488,13.875-16.65,24.976c-2.775,9.713-4.163,20.813-4.163,33.301
		c0,11.1,1.388,22.2,4.163,33.301s9.713,19.426,19.425,26.363c4.163,2.775,8.325,4.163,12.488,5.55
		c4.163,1.388,9.713,1.388,13.875,1.388c12.488,0,22.201-2.775,30.526-9.713c6.938-5.55,12.488-13.875,16.65-23.588
		C1823.219,1494.374,1824.607,1483.274,1824.607,1472.173z M1938.385,1531.837c0-8.325-1.388-16.65-1.388-26.363v-26.363
		c0-4.163,0-8.325,0-12.488s0-8.325,0-12.488c0-4.163,0-6.938,0-11.1s0-6.938-1.388-11.1c-1.388-8.325-4.163-16.65-8.325-22.201
		c-5.55-5.55-12.488-8.325-20.813-8.325c-6.938,0-13.875,1.387-19.425,4.163c-5.55,2.775-11.1,6.938-16.65,11.1
		c0-2.775,0-4.163,0-6.938s0-4.163,0-6.938l-1.388-1.388c-4.163,0-8.325,1.388-12.488,1.388c-4.163,0-8.325,1.387-12.488,1.387
		l-1.388,1.388c0,9.713,1.388,20.813,1.388,30.526c0,9.713,0,20.813,0,30.526v19.426c0,6.938,0,13.875,0,20.813s0,13.875,0,20.813
		l1.388,1.388h11.1c4.163,0,8.325,0,11.1,0l1.388-1.388c0-5.55,0-9.713,0-13.875c0-4.163,0-9.713,0-13.875v-26.363
		c0-8.325,0-16.65,0-26.363v-6.938c0-2.775,0-5.55,0-6.938c2.775-2.775,6.938-6.938,11.1-8.325
		c4.163-2.775,9.713-4.163,13.875-4.163c5.55,0,8.325,1.388,11.1,4.163c2.775,2.775,4.163,6.938,5.55,11.1c0,2.775,0,4.163,0,6.938
		s0,4.163,0,6.938c0,8.325,0,15.263,0,23.588v23.588c0,5.55,0,11.1,0,16.65c0,5.55,0,11.1,0,15.263l1.388,1.387h11.1
		c4.163,0,8.325,0,11.1,0L1938.385,1531.837z"/>
</g>
</svg>
