<svg xmlns="http://www.w3.org/2000/svg" viewBox="0 0 714.05 419.16">
  <title>rewe-digital-logo</title>
  <g>
    <path d="M111,479.73l-10.43-27.61c-3.88-10.27-6.06-11.63-11.63-11.63v39.24H63.56v-99h34c29.14,0,38.56,11.79,38.56,28.29,0,17-8.93,25.75-20.54,27.61,3.36,1,7.4,5.55,9.94,10.76,3.19,6.56,11.61,24.91,14.8,32.33H111ZM89,401.62V421.8h7.25c8.58,0,11.61-4.21,11.61-10.76,0-7.07-3.88-9.42-11.79-9.42H89Z" transform="translate(-63.56 -88.83)" style="fill: #777"/>
    <polygon points="87.41 390.89 87.41 291.89 142.98 291.89 142.98 312.78 112.83 312.78 112.83 329.44 137.43 329.44 137.43 349.63 112.83 349.63 112.83 369.67 146.69 369.67 146.69 390.89 87.41 390.89" style="fill: #777"/>
    <path d="M312.81,479.73H285.7l-5.08-28.62c-2.18-12-4.37-24.91-4.86-31.13h-0.17c-0.19,4.86-2.37,18.17-4.72,31.13l-5.22,28.62H237.86l-24.08-99h26.95l5.55,26.77C251,429.72,251.84,439.31,252,443h0c0.68-7.92,2.35-20.21,5-34.85l5.05-27.44H290.4l6.41,33.18a193.81,193.81,0,0,1,4,29.11H301c0.5-8.93,3.53-28.1,5.39-37.71l5.05-24.58h27.12Z" transform="translate(-63.56 -88.83)" style="fill: #777"/>
    <polygon points="282.08 390.89 282.08 291.89 337.82 291.89 337.82 312.78 307.5 312.78 307.5 329.44 332.27 329.44 332.27 349.63 307.5 349.63 307.5 369.67 341.53 369.67 341.53 390.89 282.08 390.89" style="fill: #777"/>
    <rect x="704.63" y="291.9" width="9.42" height="99" style="fill: #777"/>
    <path d="M719.69,471.64A29.63,29.63,0,1,1,749.32,442,29.68,29.68,0,0,1,719.69,471.64Zm0-68.68a39.05,39.05,0,1,0,29.63,64.48v12.29h9.42V442A39.08,39.08,0,0,0,719.69,403Z" transform="translate(-63.56 -88.83)" style="fill: #777;fill-rule: evenodd"/>
    <polygon points="564.49 315.46 564.49 390.89 573.94 390.89 573.94 324.89 594.15 324.89 594.15 390.89 603.57 390.89 603.57 324.89 622.95 324.89 622.95 315.46 603.57 315.46 603.57 291.89 594.15 291.89 594.15 315.46 564.49 315.46" style="fill: #777;fill-rule: evenodd"/>
    <path d="M579.56,412.38A29.63,29.63,0,1,0,609.2,442,29.67,29.67,0,0,0,579.56,412.38Zm39.07,56.56h0a39.09,39.09,0,0,1-77.47,7.4h9.78a29.6,29.6,0,0,0,58.27-7.4v-1.51A39,39,0,1,1,618.63,442h0v26.93Z" transform="translate(-63.56 -88.83)" style="fill: #777;fill-rule: evenodd"/>
    <rect x="459.09" y="315.46" width="9.42" height="75.43" style="fill: #777"/>
    <path d="M473.47,412.38A29.63,29.63,0,1,0,503.1,442,29.67,29.67,0,0,0,473.47,412.38ZM512.54,442a39.11,39.11,0,1,1-9.44-25.42V380.73h9.44V442Z" transform="translate(-63.56 -88.83)" style="fill: #777;fill-rule: evenodd"/>
    <path d="M527.36,380.07a5.38,5.38,0,1,1-5.4,5.38A5.32,5.32,0,0,1,527.36,380.07Z" transform="translate(-63.56 -88.83)" style="fill: #777;fill-rule: evenodd"/>
    <path d="M632.77,380.07a5.38,5.38,0,1,1-5.38,5.38A5.32,5.32,0,0,1,632.77,380.07Z" transform="translate(-63.56 -88.83)" style="fill: #777;fill-rule: evenodd"/>
    <path d="M516.58,310.87c1.34,0.16,2,1.36,1.34,2.35-0.5,1-2,1.53-3.36,1.36-1.34-.33-1.86-1.36-1.34-2.35A3.32,3.32,0,0,1,516.58,310.87Zm17.67-30.81c1.52,0.35,2.2,1.36,1.69,2.54a3.65,3.65,0,0,1-3.88,1.51c-1.51-.33-2.19-1.34-1.51-2.52A4.2,4.2,0,0,1,534.25,280.06Zm16.84-29.11c1.69,0.17,2.54,1.34,1.86,2.51s-2.54,1.86-4.21,1.69c-1.69-.33-2.54-1.53-1.86-2.7A4.37,4.37,0,0,1,551.1,250.95Zm-63.32,70.87c1.69,0.33,2.37,1.69,1.53,3a4.43,4.43,0,0,1-4.39,1.67c-1.67-.33-2.35-1.67-1.5-3C484.08,322.15,486.1,321.49,487.77,321.82Zm19.2-32.5c2.87,0.68,4.21,2.87,2.87,5.05s-4.7,3.54-7.57,3-4.23-2.87-2.87-5.05S504.11,288.82,507,289.32ZM458.64,333.1c1.69,0.33,2.37,1.69,1.53,3a4,4,0,0,1-4.39,1.67,1.89,1.89,0,0,1-1.34-3A4,4,0,0,1,458.64,333.1Zm20.89-33.84c3.55,0.84,5.22,3.71,3.38,6.56-1.69,2.87-6.08,4.56-9.61,3.88-3.71-.84-5.22-3.71-3.38-6.56S476,298.58,479.53,299.26ZM498,268.62c4.72,0.84,6.91,4.37,4.72,8.08-2.19,3.53-7.92,5.73-12.62,4.88s-6.58-4.37-4.39-8.08C487.94,270,493.34,267.77,498,268.62ZM532.23,152.3a10.35,10.35,0,0,1-5.55-1.69,6.7,6.7,0,0,1-1,4.21,11.39,11.39,0,0,1-2.87,2.87,21.19,21.19,0,0,1,6.42-.33,12.21,12.21,0,0,1,6,1.69,5.18,5.18,0,0,1,.84-3.38,14.38,14.38,0,0,1,6.23-4.87A23.18,23.18,0,0,1,532.23,152.3Zm-21.05,28.27a16.89,16.89,0,0,1,3.05.19,12.15,12.15,0,0,1,5.88,1.86,5.91,5.91,0,0,1,1.2-3.55,11.69,11.69,0,0,1,3.52-3.53,20.54,20.54,0,0,1-7.75.5,13,13,0,0,1-2.68-.33c-0.35.66-.68,1.51-1.18,2.51A13,13,0,0,1,511.18,180.57Zm-13.3,25.1a13.14,13.14,0,0,1,6.42,2.51,6.16,6.16,0,0,1,1-4.7,11.74,11.74,0,0,1,3.53-3.55,22.12,22.12,0,0,1-7.4.35,11.81,11.81,0,0,1-5.57-1.86,7.18,7.18,0,0,1-1.34,3.71,14.59,14.59,0,0,1-4.37,4A24.41,24.41,0,0,1,497.88,205.67Zm-20,21.71a15.62,15.62,0,0,1-4.21,4,17.9,17.9,0,0,1,7.92-.33,12.88,12.88,0,0,1,6.23,2.35,6.43,6.43,0,0,1,1.18-4.37,15.15,15.15,0,0,1,4.72-4.39,23.37,23.37,0,0,1-8.41.52,11,11,0,0,1-6.23-2.7A6.89,6.89,0,0,1,477.83,227.38ZM464.2,258a11.69,11.69,0,0,1,6.39,2.87,8,8,0,0,1,1.36-5.22,16.47,16.47,0,0,1,4.21-4.23,18.83,18.83,0,0,1-8.08.35,12.16,12.16,0,0,1-4.72-1.69,9.44,9.44,0,0,1-1.5,3.88,13.88,13.88,0,0,1-3.71,3.88A24.71,24.71,0,0,1,464.2,258Zm43.94-96.13a9.86,9.86,0,0,1-5.88-2.18,5.85,5.85,0,0,1-1,5,22.12,22.12,0,0,1-1.85,2.19,22.48,22.48,0,0,1,5.73-.33,20.66,20.66,0,0,1,3.36.66,3.83,3.83,0,0,1,1-1.84,12.43,12.43,0,0,1,3.53-3.71A22.92,22.92,0,0,1,508.15,161.89Zm-11.28,98c-3.2,5.38-11.61,8.57-18.52,7.4a11.44,11.44,0,0,1-5.73-2.54,8.89,8.89,0,0,1-1.34,6.23c-3.88,6.06-13.14,9.77-20.89,8.25a10.82,10.82,0,0,1-6.23-3.2,8.51,8.51,0,0,1-1.52,5.41c-3.37,5.38-11.78,8.74-18.35,7.4s-8.93-6.74-5.38-12,11.44-8.41,18-7.23a11.44,11.44,0,0,1,5.39,2.54,8.39,8.39,0,0,1,1.53-6.06,15.06,15.06,0,0,1,4-4,23.26,23.26,0,0,1-5.89-.17,9.43,9.43,0,0,1-5.9-2.87,7.56,7.56,0,0,1-1.53,5.39c-3.52,5.22-11.78,8.57-18.35,7.4-6.39-1.34-8.74-6.56-5.22-11.61,3.55-5.22,11.64-8.41,18-7.24a9,9,0,0,1,5.38,2.52,7.42,7.42,0,0,1,1.53-5.71c3.69-5.56,12.29-8.93,19.36-7.91a14.78,14.78,0,0,1,4.37,1.52,11.62,11.62,0,0,1,1.53-4.23,19,19,0,0,1,5.38-4.87,16.67,16.67,0,0,1-6.39.17c-6.39-.85-8.93-5.55-5.73-10.44,3.19-4.72,10.95-7.92,17.34-6.91a9.33,9.33,0,0,1,5.24,2,7.17,7.17,0,0,1,1.34-5.55,16.81,16.81,0,0,1,5.05-4.72,22.6,22.6,0,0,1-6.75.52c-6.56-.84-9.26-5.57-6.06-10.29,3-4.7,10.95-7.9,17.53-7.06a11.08,11.08,0,0,1,4.37,1.34,8,8,0,0,1,1.51-4.54,18.72,18.72,0,0,1,1.53-1.85,27.86,27.86,0,0,1-3.71-.17,13.66,13.66,0,0,1-5.55-1.69,6.68,6.68,0,0,1-1,2.87c-3,4.53-10.62,7.57-17,6.9-6.06-.84-8.6-5.05-5.57-9.44s10.46-7.4,16.52-6.72a18.36,18.36,0,0,1,3.52.82,8.11,8.11,0,0,1,1.52-4.37,16.39,16.39,0,0,1,3.37-3.37H483.9a10.16,10.16,0,0,1-6.23-2.7c0.68,1.53.51,3.38-.85,5.4-3,4.37-10.43,7.4-16.66,6.72-6.06-.68-8.43-4.7-5.41-9.1a14.36,14.36,0,0,1,4.72-4,17.5,17.5,0,0,1-7.75.83,9.06,9.06,0,0,1-5.88-2.35,5.24,5.24,0,0,1-1,4.72c-3,4.21-10.1,7.24-15.84,6.56s-7.76-4.55-4.72-8.57c2.86-4,9.77-6.91,15.49-6.42a7.23,7.23,0,0,1,5.07,2.18,6.41,6.41,0,0,1,1.17-5.55c3.19-4.37,10.95-7.57,17.34-7.07,6.56,0.52,9.26,4.72,6.06,9.26a14.73,14.73,0,0,1-5.38,4.55,20.73,20.73,0,0,1,7.07-.84c2.68,0.33,4.7,1.17,5.9,2.51-0.68-1.5-.52-3.36.82-5.38,3-4.37,10.62-7.57,17-7.07,2.71,0.35,4.56,1,5.9,2.18a5.4,5.4,0,0,1,1-4.89c2.87-4.37,10.43-7.57,17-7.05a11.14,11.14,0,0,1,5.22,1.51,7.2,7.2,0,0,1,1-4.37c3-4.56,11.11-7.76,18.19-7.42,7.07,0.52,10.45,4.72,7.42,9.45a15.35,15.35,0,0,1-6.91,5.38,23.09,23.09,0,0,1,8.93-1.34c6.56,0.5,9.75,4.37,7.07,8.58-2.7,4.37-10.29,7.4-16.68,6.91a15.25,15.25,0,0,1-4.56-1.17,7.4,7.4,0,0,1-1.18,4.7,16.92,16.92,0,0,1-5.05,4.72,16.12,16.12,0,0,1,5.73-.35c6.58,0.51,9.78,4.72,6.91,9.09-2.7,4.56-10.46,7.75-17,6.91a15,15,0,0,1-4.54-1.17,7.85,7.85,0,0,1-1.2,4.88,20.12,20.12,0,0,1-4.7,4.54,19.19,19.19,0,0,1,5.38-.16c6.74,0.84,9.94,5.22,7.07,10.1-3,4.87-11.11,8.07-17.86,7.24a12.13,12.13,0,0,1-5.55-2.18,7.71,7.71,0,0,1-1.17,5.55,19.32,19.32,0,0,1-5.73,5.22,17.53,17.53,0,0,1,7.24-.49c6.91,1,10.1,5.71,6.91,10.76-3,5.05-11.28,8.25-18.19,7.24a11.24,11.24,0,0,1-5.22-2,8.24,8.24,0,0,1-1.36,5.73,17.11,17.11,0,0,1-5.39,5.05,16.86,16.86,0,0,1,6.58-.17C497,249.61,500.06,254.66,496.87,259.88ZM417,157c3-4.23,10.1-7.07,15.67-6.58s8.08,4.21,5.05,8.41-10.29,7.07-16,6.58c-2.7-.35-4.55-1.17-5.4-2.54a5.62,5.62,0,0,1-1.18,5.38c-3.19,4.39-10.6,7.42-16.33,6.74a7.81,7.81,0,0,1-4.89-2.18,7.53,7.53,0,0,1-1.5,4.89c-3.38,4.21-10.62,7.24-16.17,6.56a6.66,6.66,0,0,1-4.89-2.19,7.27,7.27,0,0,1-1.52,4.89c-3.36,4.37-10.6,7.4-16.17,6.56-5.55-.68-7.07-4.7-3.69-9.09,3.36-4.21,10.43-7.07,15.82-6.56a8.27,8.27,0,0,1,4.72,2.19,7,7,0,0,1,1.5-4.7c3.38-4.23,10.46-7.24,16-6.58a7.72,7.72,0,0,1,4.88,2c-0.33-1.34.17-3,1.53-4.72,3.2-4.21,10.27-7.05,16-6.56,2.68,0.33,4.54,1.18,5.38,2.7A5.76,5.76,0,0,1,417,157ZM332,206.51c3.71-4.88,11.47-7.92,17.2-7.23a7.64,7.64,0,0,1,4.7,2.18,10.73,10.73,0,0,1,1.69-4.21c3.36-4.21,10.27-6.91,15.49-6.23,5.4,0.66,7.26,4.54,4,8.91-3.19,4.21-10.27,7.24-15.82,6.41a5.77,5.77,0,0,1-4-1.86,9,9,0,0,1-2,5.05,18.12,18.12,0,0,1-5.4,4.54,17.64,17.64,0,0,1,5.89-.49c5.57,0.85,7.24,5.05,3.88,9.59-3.36,4.37-10.62,7.4-16,6.56-5.38-1-6.91-5.22-3.53-9.59a17.75,17.75,0,0,1,4.54-4,16.41,16.41,0,0,1-6.91.68C329.8,215.77,328.14,211.21,332,206.51Zm80.5-14.31c1.69-2.35,5.57-3.88,8.6-3.55s4.21,2.54,2.54,4.89-5.57,3.88-8.6,3.55C411.83,196.74,410.82,194.55,412.49,192.2Zm-7.9,24.74a6.12,6.12,0,0,1-5.57,2.18c-2-.16-2.68-1.69-1.53-3.2a5.81,5.81,0,0,1,5.57-2.35C405.09,213.91,405.77,215.25,404.59,216.95ZM391.11,242.2c-2.51,3.53-8.09,5.71-12.29,5.05-4.37-.87-5.73-4.23-3.2-7.59a13.54,13.54,0,0,1,12.13-5.05C392.12,235.3,393.64,238.66,391.11,242.2Zm15.16-55.74c-4.89-.66-6.72-4-3.85-7.73,2.68-3.71,8.74-6.23,13.63-5.57,5.05,0.51,6.91,3.88,4.21,7.59S411.15,187,406.26,186.47Zm-26.77,1.69c2.87-3.71,8.93-6.22,13.63-5.73,4.88,0.68,6.57,4,3.88,7.92-2.87,3.71-9.09,6.22-14,5.56C378.32,195.4,376.8,191.85,379.5,188.16Zm-0.84,24.91c-2.54,3.37-7.92,5.73-12.13,5.05s-5.57-3.88-3-7.07a14.33,14.33,0,0,1,12-5.05C379.66,206.67,381.17,209.87,378.65,213.07ZM400,203.15a10.23,10.23,0,0,1-8.76,3.52c-3-.33-4-2.54-2.35-4.89a10.29,10.29,0,0,1,8.57-3.52C400.55,198.59,401.73,200.78,400,203.15Zm-27,28.27c-3.69-.68-4.86-3.52-2.68-6.56a12.94,12.94,0,0,1,10.77-4.39c3.71,0.68,5.05,3.55,2.87,6.58A12.78,12.78,0,0,1,373.08,231.42Zm-25.92,12.46c-5.22-1-6.74-5.22-3.54-9.59a17.66,17.66,0,0,1,15.5-6.23c5.22,0.85,6.89,5.05,3.69,9.42C359.46,241.86,352.55,244.72,347.17,243.88ZM329,193.7a17.58,17.58,0,0,1,14-5.71c4.89,0.66,6.25,4.21,3.22,8.08S336.71,202.63,332,202,325.95,197.58,329,193.7Zm84.19,38c-1.51,2.35-5.22,3.88-8.25,3.38-2.87-.52-3.88-2.7-2.35-5.05a9.48,9.48,0,0,1,8.25-3.21C413.69,227.21,414.86,229.4,413.17,231.75ZM421.42,206a6.63,6.63,0,0,1,5.73-2.18c2,0.17,2.7,1.69,1.69,3.2s-3.71,2.54-5.73,2.37C421.09,209,420.41,207.52,421.42,206Zm12.48-23.73c2.35-3.2,7.73-5.39,12.29-5.05,4.37,0.52,6.23,3.54,3.88,6.91-2.19,3.2-7.75,5.55-12.29,5.05S431.54,185.46,433.89,182.26Zm-28,62.29c2.87-3.88,9.1-6.39,14.15-5.57s6.91,4.56,4.21,8.6c-2.87,4-9.26,6.72-14.31,5.71C404.92,252.45,403.23,248.6,405.93,244.55Zm2,30.12c-3.54,5.05-11.44,8.25-17.51,7.07-6.23-1.34-8.27-6.39-4.72-11.28,3.54-5.05,11.28-8.08,17.34-7.07C409.13,264.58,411.5,269.63,408,274.68Zm42.11-37.2c-2.7,4-9.26,6.73-14.49,5.9s-7.24-4.89-4.54-8.93c2.7-3.88,9.09-6.39,14.31-5.73C450.55,229.56,452.76,233.44,450.06,237.48Zm-1-27.77c2.35-3.54,8.08-5.73,12.81-5.22s6.72,4,4.37,7.57c-2.54,3.55-8.24,5.9-13,5.22C448.37,216.61,446.51,213.23,449,209.71Zm-6.91-14a12.87,12.87,0,0,1,11-4.37c4,0.49,5.73,3.2,3.71,6.23-2.21,3-7.07,4.89-11.13,4.38S440.12,198.76,442.14,195.73Zm-4,25.94a9.17,9.17,0,0,1-8.25,3.36c-3-.35-4.21-2.7-2.54-4.89a9.49,9.49,0,0,1,8.08-3.36C438.43,217.27,439.6,219.46,438.1,221.66Zm13,89.21c3.2,0.68,4.54,3.38,2.87,6.06a9,9,0,0,1-8.76,3.38c-3.2-.68-4.38-3.38-2.71-5.9C444,311.71,447.87,310.21,451.07,310.87Zm20.7-33.16c5.9,1,8.6,5.73,5.57,10.43-2.87,4.72-10.1,7.59-16.17,6.39-5.9-1.17-8.25-5.88-5.4-10.6C458.82,279.4,465.88,276.54,471.77,277.71Zm-50,46c2,0.49,2.87,2.18,1.67,3.88a5.4,5.4,0,0,1-5.55,2.18,2.42,2.42,0,0,1-1.69-3.88A5.49,5.49,0,0,1,421.77,323.68Zm22.07-34.17c5.22,1,7.23,5.22,4.53,9.42s-9.1,6.73-14.15,5.55c-5.22-1-7.07-5.38-4.37-9.42S438.78,288.5,443.83,289.51ZM393,336.13a1.31,1.31,0,0,1,.85,2,3.21,3.21,0,0,1-2.87,1.17,1.19,1.19,0,0,1-.68-2A2.78,2.78,0,0,1,393,336.13Zm22.4-33.67c3.54,0.68,4.88,3.71,2.87,6.74a9.88,9.88,0,0,1-9.94,3.85c-3.69-.66-4.89-3.69-2.87-6.72A10.09,10.09,0,0,1,415.36,302.46Zm-28.62,12.81a2.62,2.62,0,0,1,1.69,4.21,6.12,6.12,0,0,1-5.9,2.18c-2-.51-2.7-2.18-1.53-4A6.2,6.2,0,0,1,386.74,315.26Zm22.56-33.18c5.24,1,7.07,5.22,4.21,9.61s-9.42,6.89-14.64,5.88c-5.22-1.17-6.91-5.55-4-9.75S404.24,281.07,409.29,282.08Zm-50.36,45.47c1,0.16,1.36,1.17.68,2.18a3.31,3.31,0,0,1-3.19,1.17,1.31,1.31,0,0,1-.68-2.18A2.94,2.94,0,0,1,358.94,327.55Zm22.74-33.18c3.88,0.84,5.22,4.21,3,7.42a11.47,11.47,0,0,1-11.11,4.37c-3.88-.84-5.05-4.21-2.7-7.42A11.3,11.3,0,0,1,381.68,294.37ZM354.07,307c2.35,0.5,3.19,2.68,1.67,4.7a7.3,7.3,0,0,1-7.07,2.87c-2.35-.68-3-2.7-1.51-4.89A7.33,7.33,0,0,1,354.07,307ZM367,275.85a19.59,19.59,0,0,1-9.26.85c-6.56-1.34-8.58-6.91-4.54-12.46a18.77,18.77,0,0,1,6.23-5.22,17,17,0,0,1-7.07.5c-5.57-1.18-7.24-5.9-3.71-10.6,3.36-4.72,10.78-7.57,16.5-6.72s7.59,5.71,4.06,10.43a13.92,13.92,0,0,1-5.24,4.54,17.32,17.32,0,0,1,8.27-.49,10,10,0,0,1,4.87,2.19,8.35,8.35,0,0,1,1.69-4.38c3.55-4.88,11.12-7.92,17-6.91,6.06,1,8.25,5.71,4.89,10.76-3.55,4.89-11.28,8.08-17.36,6.91a9,9,0,0,1-4.21-1.86,9.24,9.24,0,0,1-2,5.38,17.61,17.61,0,0,1-7.24,5.9,16.16,16.16,0,0,1,7.42-.5c5.55,1.18,7.57,5.88,4.21,10.6-3.38,4.88-10.79,7.73-16.35,6.56s-7.4-5.89-4-10.6A16.86,16.86,0,0,1,367,275.85Zm-40.25,43.43c1,0.19,1.37,1.36.68,2.37a3.72,3.72,0,0,1-3.53,1.34c-1.2-.17-1.36-1.34-0.68-2.35A3.73,3.73,0,0,1,326.77,319.28ZM350,286.8c4,1,5.38,4.54,2.85,8.09s-7.92,5.71-12,4.7c-4-.85-5.22-4.54-2.68-7.9C340.76,288.14,346.16,286,350,286.8Zm-27,13c2.19,0.52,2.87,2.7,1.34,4.72a7.28,7.28,0,0,1-6.74,2.7c-2.35-.51-2.87-2.7-1.34-4.72A7.13,7.13,0,0,1,323.08,299.75Zm22.72-31.3c5.24,1,6.74,5.57,3.55,10.11-3.36,4.53-10.27,7.23-15.51,6.23-5.05-1.17-6.56-5.73-3.2-10.1C333.84,270.15,340.76,267.44,345.81,268.45ZM296,311.88a1.15,1.15,0,0,1,.5,2,2.53,2.53,0,0,1-2.85,1.18c-1-.17-1.2-1-0.51-2A3.44,3.44,0,0,1,296,311.88Zm22.89-30.45c3.22,0.66,4,3.52,1.85,6.39a10,10,0,0,1-9.42,3.88c-3.2-.84-3.88-3.55-1.86-6.42C311.62,282.6,315.84,280.74,318.85,281.42Zm22.06-29.3c5.57,1,7.42,5.73,3.71,10.44-3.55,4.88-11.12,7.92-16.66,6.91-5.56-1.17-7.07-5.9-3.38-10.78C328.14,254,335.37,251.11,340.92,252.12ZM292.25,294c1.53,0.33,1.86,1.69.84,3a5,5,0,0,1-4.56,1.86c-1.5-.35-1.83-1.69-0.66-3A4.72,4.72,0,0,1,292.25,294Zm22.39-29.3c3.55,0.68,4.56,3.88,2.21,7.07s-7.43,5.22-11,4.39-4.39-3.88-2-7.07A11.93,11.93,0,0,1,314.65,264.74Zm21.05-27.42c5.38,0.84,7.07,5.38,3.54,9.94S328.46,255,322.9,254c-5.38-1-6.72-5.55-3.2-10.27C323.25,239.15,330.32,236.31,335.7,237.32Zm-47.16,39.9c1.86,0.33,2.37,2,1,3.69a6.42,6.42,0,0,1-5.57,2.35c-1.85-.49-2.35-2.19-1-3.69A6.21,6.21,0,0,1,288.54,277.22Zm21.73-27.78c3.53,0.66,4.54,3.85,2,6.89-2.35,3.2-7.4,5.22-10.95,4.56s-4.54-3.88-2-7.07C301.68,250.78,306.56,248.76,310.28,249.44Zm20.21-25.94c5.05,0.68,6.39,4.88,3.2,9.09-3.36,4.21-10.11,7.07-15.16,6.23s-6.39-5.05-3-9.26S325.43,222.68,330.49,223.5Zm-67.37,65.32a0.75,0.75,0,0,1,.35,1.34,2,2,0,0,1-2,.84,0.78,0.78,0,0,1-.18-1.34A1.82,1.82,0,0,1,263.12,288.82Zm21.57-27.28c2,0.51,2.35,2.18,1,3.88a6.7,6.7,0,0,1-5.9,2.35c-1.85-.33-2.18-2-0.84-3.69A6.34,6.34,0,0,1,284.69,261.55Zm20.87-26.09c3.22,0.49,4,3.2,1.86,6.06-2.35,2.87-6.74,4.7-10.1,4.21-3.19-.68-4-3.36-1.69-6.23S302.19,234.78,305.55,235.46Zm20-25.43c4.56,0.68,5.9,4.39,2.87,8.41s-9.43,6.41-14,5.73c-4.72-.85-5.9-4.56-2.87-8.41C314.81,211.89,320.89,209.38,325.6,210Zm-65.67,63c0.68,0.19.85,0.85,0.33,1.53a2.54,2.54,0,0,1-2.35,1c-0.68-.16-0.85-0.84-0.33-1.69A2.64,2.64,0,0,1,259.92,273Zm20.7-25.73c1.53,0.33,1.85,1.83.68,3.19a5.21,5.21,0,0,1-4.89,2c-1.51-.33-2-1.67-0.83-3.2A6.41,6.41,0,0,1,280.62,247.26Zm19.88-24.77C303,223,303.72,225,302,227.38a9.91,9.91,0,0,1-7.92,3.2c-2.54-.5-3.2-2.68-1.34-4.89A9.31,9.31,0,0,1,300.5,222.49Zm-43.94,35.7c0.49,0.16.66,0.68,0.17,1.34a2,2,0,0,1-1.86.68c-0.68-.17-0.68-0.68-0.33-1.18A3,3,0,0,1,256.56,258.19Zm19.69-24.25c1.18,0.35,1.36,1.2.52,2.2a4.17,4.17,0,0,1-3.38,1.34c-1-.16-1.17-1.17-0.49-2A4.18,4.18,0,0,1,276.25,233.94Zm19.2-23.38c1.69,0.33,2,1.67.84,3a6.15,6.15,0,0,1-5.05,2.19c-1.67-.33-2-1.69-0.85-3A6.09,6.09,0,0,1,295.45,210.55Zm-42.27,33.65c0.52,0,.52.52,0.17,0.84a1.78,1.78,0,0,1-1.51.68,0.62,0.62,0,0,1-.16-1A1.7,1.7,0,0,1,253.18,244.21Zm19-22.89c0.51,0,.68.52,0.16,1a2.29,2.29,0,0,1-1.67.85,0.64,0.64,0,0,1-.35-1.18A1.86,1.86,0,0,1,272.21,221.32Zm67.53-81.47c-0.33,0-.5-0.16-0.33-0.52a1.26,1.26,0,0,1,1-.33c0.49,0,.49.17,0.33,0.51A1.23,1.23,0,0,1,339.74,139.85Zm-16.5,19.86a0.48,0.48,0,0,1-.17-0.85,1.67,1.67,0,0,1,1.34-.5c0.52,0,.52.33,0.33,0.68A2.46,2.46,0,0,1,323.25,159.7Zm-17.18,20.7c-0.85,0-1-.66-0.52-1.34a3.43,3.43,0,0,1,2.54-1c0.68,0.16,1,.68.33,1.34A2.56,2.56,0,0,1,306.07,180.41Zm-17.53,21.22a0.87,0.87,0,0,1-.49-1.53,3.13,3.13,0,0,1,2.54-1c0.82,0.19,1,.68.49,1.53A3.71,3.71,0,0,1,288.54,201.62Zm71.59-70.19c-0.51,0-.68-0.35-0.35-0.68a1.38,1.38,0,0,1,1.34-.5c0.52,0,.68.33,0.35,0.66A1.87,1.87,0,0,1,360.13,131.43Zm-16.35,20c-0.84-.17-1-0.66-0.49-1.34a3,3,0,0,1,2.35-1c0.85,0.16,1.17.68,0.52,1.34A3.08,3.08,0,0,1,343.78,151.45Zm-17.17,21.05c-1.51-.18-1.86-1.17-1-2.37a5.33,5.33,0,0,1,4.39-1.67c1.34,0.17,1.67,1.18.83,2.35A5.86,5.86,0,0,1,326.61,172.51Zm-17.67,21.55c-1.86-.19-2.2-1.69-1-3a6.67,6.67,0,0,1,5.38-2.37c1.69,0.35,2.19,1.69,1,3.19A6.1,6.1,0,0,1,308.94,194.06Zm10.43,5c3.36,0.51,4.21,3.05,2,5.89s-6.74,4.56-9.94,4c-3.36-.5-4.21-3-2-5.88A11.92,11.92,0,0,1,319.37,199.09Zm61.3-76.26a0.42,0.42,0,0,1-.33-0.66,2.41,2.41,0,0,1,1.51-.68c0.33,0.17.52,0.33,0.33,0.68A1.82,1.82,0,0,1,380.67,122.83ZM364.51,143a1,1,0,0,1-.85-1.69,4.58,4.58,0,0,1,3.2-1.34c1.17,0.17,1.53.84,0.85,1.69A4.59,4.59,0,0,1,364.51,143Zm-17.34,21.55c-2-.33-2.7-1.86-1.36-3.36a8.28,8.28,0,0,1,6.06-2.54c2,0.17,2.7,1.69,1.36,3.38A7.82,7.82,0,0,1,347.17,164.59Zm-18,22.23c-3-.35-3.88-2.7-1.86-5.05a11.7,11.7,0,0,1,9.09-3.71c3,0.33,3.88,2.51,1.86,5.05A10.37,10.37,0,0,1,329.15,186.82Zm72.4-72.89c-0.33,0-.5-0.19-0.17-0.52a1.88,1.88,0,0,1,1-.33c0.33,0,.49.17,0.33,0.5A2.49,2.49,0,0,1,401.54,113.93Zm-16,20.35c-1-.17-1.52-0.82-0.84-1.67a4.31,4.31,0,0,1,3.2-1.34c1.17,0.16,1.53.82,0.84,1.67A4.3,4.3,0,0,1,385.56,134.28Zm-17.34,21.9c-2.37-.33-3.22-2-1.69-3.88a9.39,9.39,0,0,1,7.07-3c2.52,0.33,3.36,2,1.86,3.88A9.57,9.57,0,0,1,368.22,156.18ZM350,179.07c-3.88-.5-5.07-3.36-2.54-6.39,2.35-3.2,7.59-5.22,11.44-4.88,4,0.49,5.4,3.36,2.87,6.39A14.31,14.31,0,0,1,350,179.07Zm34.52-14a15.52,15.52,0,0,1-12.81,5.4c-4.55-.51-5.89-3.55-3.2-6.91,2.52-3.36,8.25-5.73,12.62-5.38C385.73,158.69,387.23,161.72,384.55,165.08ZM407.11,125c-1,0-1.34-.66-0.84-1.18a3,3,0,0,1,2.54-1c0.84,0,1.17.52,0.66,1.2A3.05,3.05,0,0,1,407.11,125Zm-17.17,22.06c-2.52-.17-3.53-1.85-2-3.71a9.55,9.55,0,0,1,7.24-3c2.54,0.17,3.38,1.85,1.86,3.71A8,8,0,0,1,389.93,147.08Zm38.74-31.3c-0.51-.18-0.68-0.51-0.35-0.84a1.64,1.64,0,0,1,1.36-.52,0.46,0.46,0,0,1,.49.68A2.54,2.54,0,0,1,428.68,115.78Zm-16.85,22c-2.37-.17-3.2-1.69-1.86-3.36a7.81,7.81,0,0,1,6.39-2.7c2.37,0.17,3.21,1.69,2,3.36A8.37,8.37,0,0,1,411.83,137.83Zm-18,23.57c-4.54-.52-6.06-3.54-3.54-6.91s8.27-5.71,12.81-5.38c4.55,0.49,6.23,3.53,3.71,6.91C404.08,159.37,398.36,161.72,393.81,161.39Zm56.42-54.71c-0.33-.18-0.5-0.35-0.33-0.51a1.19,1.19,0,0,1,1-.5c0.49,0,.49.17,0.33,0.5A2,2,0,0,1,450.22,106.69Zm-15.84,21c-1.51-.17-2.19-1.17-1.34-2.18a6.08,6.08,0,0,1,4.54-2c1.69,0.17,2.37,1.17,1.36,2.35A5.46,5.46,0,0,1,434.39,127.72Zm-18,23.9c-4.21-.33-5.71-3.19-3.36-6.23,2.18-3,7.4-5.22,11.63-4.88s5.9,3.21,3.69,6.25S420.59,152,416.37,151.62Zm40.44-33.84c-0.85,0-1.36-.66-0.85-1.17a3.59,3.59,0,0,1,2.52-1.18c1,0.17,1.34.68,0.85,1.37C459,117.45,457.81,117.78,456.8,117.78Zm-17.2,23.4c-3.36-.33-4.7-2.35-2.84-4.7,1.67-2.37,5.88-4,9.26-3.88s4.7,2.35,2.87,4.7S443,141.52,439.6,141.19ZM479.36,108c-0.52,0-.68-0.33-0.52-0.52a1.38,1.38,0,0,1,1.2-.5,0.33,0.33,0,0,1,.33.5A1.17,1.17,0,0,1,479.36,108ZM463.2,130.26c-2-.18-2.87-1.53-1.86-2.87a7.08,7.08,0,0,1,5.57-2.37c2.18,0.19,3,1.36,2,2.87A7.15,7.15,0,0,1,463.2,130.26Zm-18,25.07c-5.4-.51-7.4-3.88-4.54-7.59,2.68-3.69,8.9-6.39,14.31-5.88,5.22,0.33,7.4,3.69,4.7,7.4C457,153.15,450.39,155.85,445.17,155.33ZM501.1,99.1c-0.68,0-1-.33-0.68-0.84a3.06,3.06,0,0,1,1.85-.66c0.66,0,1,.33.66,0.85A1.86,1.86,0,0,1,501.1,99.1ZM486.43,120c-1.53,0-2-.85-1.34-1.86a5,5,0,0,1,3.69-1.53c1.36,0.19,2,1,1.36,1.86A4.28,4.28,0,0,1,486.43,120Zm-17,23.9c-3.71-.33-5.38-2.7-3.36-5.22,1.86-2.7,6.39-4.56,10.1-4.39,3.88,0.35,5.55,2.7,3.69,5.4C478,142.2,473.3,144.22,469.42,143.89ZM491.16,152c-2.7,3.88-9.45,6.56-15,6.06s-7.75-4-5.22-7.76c2.68-3.88,9.26-6.56,14.81-6.06C491.32,144.55,493.67,148.09,491.16,152Zm17.5-40.91c-1.69-.17-2.35-1.18-1.69-2.19a5.47,5.47,0,0,1,4.55-1.86c1.69,0,2.52,1,1.69,2.19C512.54,110.21,510.52,111.06,508.66,111.06Zm-15.32,22c-2.87-.17-4-1.83-2.7-3.86a9,9,0,0,1,7.59-3c2.87,0.17,4.21,1.83,2.87,3.69C499.73,131.93,496.37,133.27,493.34,133.1ZM513.55,142c-2.37,3.36-8.25,5.71-13.13,5.38s-7.07-3.36-4.72-6.72c2.18-3.2,7.92-5.57,12.81-5.24S515.73,138.84,513.55,142Zm17.86-40.39c-1.69-.19-2.54-1-1.86-2.19a6.61,6.61,0,0,1,4.54-1.86c1.86,0,2.7,1,1.86,2.19C535.26,100.79,533.24,101.64,531.41,101.64Zm-15.34,22.72c-3.53-.33-5.05-2.37-3.53-4.55,1.51-2.35,5.73-4,9.26-3.86s5.05,2.19,3.54,4.54S519.61,124.53,516.06,124.36Zm22.39,8.08c-2.52,3.69-9.09,6.39-14.81,6.06-5.57-.52-8.08-3.71-5.73-7.42,2.54-3.69,8.93-6.39,14.49-6.06S540.83,128.73,538.46,132.44Zm16.19-40.91c-1.2,0-1.69-.68-1.2-1.53a4.27,4.27,0,0,1,3-1.17c1.18,0,1.67.68,1.18,1.36S555.82,91.53,554.65,91.53Zm-15.16,23.05c-3.54-.17-5.07-2.18-3.71-4.37s5.55-3.88,8.93-3.71,5.22,2.18,3.71,4.39S543,114.75,539.49,114.59Zm24.25-10.93c-2.54,0-3.71-1.36-2.7-2.87s3.71-2.7,6.23-2.7c2.37,0.17,3.55,1.52,2.7,3C569,102.65,566.09,103.82,563.74,103.66ZM547.9,128c-5.22-.33-7.75-3.36-5.56-6.56,2.2-3.36,8.27-5.89,13.48-5.55,5.22,0.17,7.92,3.2,5.73,6.56S553.28,128.4,547.9,128ZM588,92.54c-1.17,0-1.86-.68-1.36-1.34a3.72,3.72,0,0,1,3-1.36c1.34,0,2,.68,1.51,1.53A3.78,3.78,0,0,1,588,92.54Zm-14.82,23.74c-3.71-.17-5.39-2.19-4-4.37,1.53-2.35,5.57-4,9.1-3.88,3.71,0.17,5.57,2.18,4.21,4.37C580.91,114.75,576.87,116.44,573.16,116.28Zm-15.32,24.42c-5.73-.52-8.43-3.71-6.06-7.42,2.18-3.69,8.76-6.39,14.47-6s8.6,3.69,6.39,7.4S563.74,141,557.84,140.69Zm40.58-36.19c-1.86-.19-2.87-1.2-2.18-2.37s2.87-2,4.88-2c1.86,0.16,2.87,1.17,2.19,2.37S600.44,104.5,598.42,104.5Zm-14.47,23.71c-3.71-.33-5.57-2.35-4.21-4.7s5.55-4,9.43-3.88c3.71,0.36,5.73,2.35,4.21,4.72C592,126.71,587.64,128.4,583.95,128.22Zm-14.5,23.59c-4.54-.35-6.9-3-5.05-5.9,1.85-3,7.07-5.05,11.63-4.72,4.7,0.17,6.91,2.87,5.22,5.9C579.39,150.11,574.17,152.13,569.45,151.81Zm-14.64,24.06c-4.89-.5-7.07-3.54-5.05-6.74,1.86-3.2,7.4-5.39,12.13-4.87,4.88,0.33,7.23,3.36,5.38,6.56C565.24,174,559.7,176.2,554.81,175.87Zm-15.15,24.75c-4.89-.52-7.07-3.71-5.05-7.07s7.57-5.55,12.46-5.05,7.23,3.71,5.22,7.07S544.54,201.11,539.66,200.62Zm-15.84,25.92c-4.88-.66-7.07-4-5-7.57,2.18-3.36,7.91-5.73,12.8-5.05,5.05,0.52,7.24,3.88,5.22,7.4C534.6,224.86,528.87,227.21,523.82,226.53Zm-16.5,27.1c-5.05-.82-7.26-4.37-5.05-8.07s8.08-5.89,13.13-5.22c5.05,0.85,7.24,4.38,5.05,8.08S512.37,254.49,507.32,253.63ZM609.87,115.95c-1.84-.17-2.68-1.2-2-2.2,0.66-1.18,2.68-2,4.54-1.84,1.69,0,2.7,1,2,2.18C613.74,115.1,611.72,115.95,609.87,115.95Zm-13.8,23.38c-2.7-.16-4-1.67-3-3.36s3.88-2.87,6.56-2.7,4.23,1.53,3.2,3.22S598.75,139.52,596.07,139.33ZM581.92,162.9c-2.87-.17-4.21-1.85-3.19-3.69,1.17-1.85,4.37-3.19,7.24-3,2.87,0.33,4.37,2,3.36,3.85C588.15,161.89,585,163.25,581.92,162.9Zm-14.49,24.58c-3-.33-4.37-2-3.2-4,1.18-1.83,4.37-3.19,7.4-3,2.87,0.35,4.39,2.21,3.21,4C573.68,186.47,570.3,187.81,567.43,187.48Zm-15.32,25.76c-2.87-.5-4.37-2.35-3-4.38,1.17-2,4.55-3.36,7.42-3,3,0.33,4.54,2.18,3.36,4.37C558.5,212.23,555.14,213.58,552.11,213.23ZM536.27,240c-3-.33-4.37-2.52-3.2-4.7,1.34-2,4.72-3.38,7.75-3s4.38,2.52,3.2,4.7C542.69,239.15,539.33,240.51,536.27,240Zm-16.66,28.12c-3-.51-4.39-2.7-3-4.88,1.17-2.35,4.72-3.71,7.73-3.2s4.55,2.68,3.21,5.05C526.17,267.28,522.64,268.62,519.61,268.12Zm115.7-163.45c-0.84,0-1.36-.52-1-1a2.48,2.48,0,0,1,2-.85c0.83,0,1.34.5,1,1A2.34,2.34,0,0,1,635.31,104.67Zm-13,22.56c-1.18,0-1.86-.68-1.53-1.36a3.69,3.69,0,0,1,3.05-1.17c1.17,0,1.83.68,1.34,1.34A2.79,2.79,0,0,1,622.34,127.23Zm-13.47,23.57c-1.53-.18-2.2-1-1.69-1.85a3.71,3.71,0,0,1,3.36-1.36c1.53,0.17,2.19.85,1.69,1.86C611.72,150.28,610.21,150.79,608.87,150.79Zm-14.15,24.4c-1.69,0-2.37-1-1.85-2a4.55,4.55,0,0,1,4-1.67c1.5,0.17,2.35,1.17,1.67,2.18C598.09,174.69,596.24,175.37,594.73,175.19Zm-14.66,25.43c-1.69-.17-2.35-1.18-1.86-2.19a4.79,4.79,0,0,1,4-1.69c1.69,0.17,2.54,1.17,1.86,2.35A4.53,4.53,0,0,1,580.07,200.62Zm-15.32,26.6c-1.69-.16-2.37-1.17-1.69-2.35,0.5-1.2,2.35-1.86,4-1.69s2.35,1.34,1.86,2.51A4.46,4.46,0,0,1,564.75,227.21Z" transform="translate(-63.56 -88.83)" style="fill: #777;fill-rule: evenodd"/>
  </g>
</svg>
