<svg xmlns="http://www.w3.org/2000/svg" xmlns:xlink="http://www.w3.org/1999/xlink" width="1024" height="197" viewBox="-4.866 -4.866 895.558 171.92"><defs><linearGradient x2="1" id="b" gradientUnits="userSpaceOnUse" gradientTransform="scale(182.95837) rotate(-120 .582 .3)"><stop offset="0" stop-color="#f47026"/><stop offset=".375" stop-color="#f47026"/><stop offset=".949" stop-color="#fbc195"/><stop offset=".949" stop-color="#fbc195"/><stop offset="1" stop-color="#fbc195"/></linearGradient><linearGradient x2="1" id="d" gradientUnits="userSpaceOnUse" gradientTransform="matrix(133.37162 0 0 -133.37162 .012 75.374)"><stop offset="0" stop-color="#f57d34"/><stop offset=".534" stop-color="#f47026"/><stop offset=".534" stop-color="#f47026"/><stop offset="1" stop-color="#f47026"/></linearGradient><linearGradient x2="1" id="a" gradientUnits="userSpaceOnUse" gradientTransform="scale(182.95837) rotate(-120 .582 .3)"><stop offset="0" stop-color="#f47026"/><stop offset=".375" stop-color="#f47026"/><stop offset=".949" stop-color="#fbc195"/><stop offset=".949" stop-color="#fbc195"/><stop offset="1" stop-color="#fbc195"/></linearGradient><linearGradient x2="1" id="c" xlink:href="#a" gradientUnits="userSpaceOnUse" gradientTransform="scale(182.95837) rotate(-120 .582 .3)"/></defs><path d="M366.915 43.1c-6.713-3.69-16.695-5.488-30.516-5.493-18.912.008-36.467 3.93-43.11 6.407-1.5.48-3.106 1.776-3.132 3.992l.004.49 1.86 9.404.047.175c.582 1.915 2.177 2.774 3.63 2.774h.006c.468-.02.832-.11 1.17-.197l3.148-.735c8.237-2.063 20.69-5.178 34.592-5.178 8.434 0 14.104.735 17.905 2.34 6.168 2.335 6.206 6.32 6.27 12.92v9.87c-.707-.013-1.9-.025-3.736-.025-6.81 0-20.2.316-33.37 2.428-20.094 3.086-36.72 7.896-36.616 35.583.007 35.148 32.607 35.214 48.273 35.246h.003c10.635-.002 20.448-1.572 26.857-2.897 14.625-3.396 18.358-8.04 18.162-22.573V69.187c.02-8.913.048-20.007-11.447-26.086m-8.03 90.286c-7.783 2.526-16.3 3.805-25.32 3.805v.822l-.01-.82c-14.413-.11-28.488-1.76-28.505-20.143.092-14.623 7.893-16.363 17.768-18.568l.685-.152c8.785-1.878 30.837-2.23 35.385-2.283l-.002 37.34zm182.442-64.2v58.446c.196 14.533-3.54 19.177-18.162 22.573-6.41 1.325-16.222 2.895-26.858 2.897-15.667-.032-48.267-.098-48.276-35.246-.103-27.687 16.525-32.497 36.62-35.584 13.17-2.11 26.56-2.427 33.367-2.427 1.838 0 3.03.012 3.737.025V70c-.063-6.6-.102-10.585-6.268-12.92-3.8-1.605-9.47-2.34-17.905-2.34-13.904 0-26.354 3.115-34.59 5.177l-3.15.735c-.338.087-.7.177-1.17.197h-.006c-1.453 0-3.048-.86-3.63-2.775l-.046-.175-1.862-9.405-.004-.49c.027-2.215 1.632-3.51 3.132-3.99 6.642-2.478 24.198-6.4 43.11-6.408 13.82.005 23.802 1.802 30.516 5.494 11.494 6.08 11.47 17.174 11.447 26.087m-19.473 26.86c-4.55.053-26.602.405-35.387 2.283l-.683.152c-9.875 2.205-17.677 3.945-17.77 18.567.018 18.382 14.093 20.03 28.506 20.14l.01.822v-.82c9.02 0 17.537-1.28 25.32-3.806l.003-37.34zm314.673-58.44c-45.4.062-49.25 29.892-49.292 57.852.042 27.856 3.892 57.58 49.292 57.642h.003c45.365-.06 49.233-29.706 49.297-57.647-.048-29.238-3.897-57.786-49.3-57.848m.002 99.177c-27.537-.122-28.92-14.257-29.11-41.32.19-27.213 1.57-41.42 29.106-41.54 27.543.12 28.923 14.327 29.11 41.527-.187 27.077-1.57 41.212-29.107 41.334m-81.48 12.205l-1.185.3c-6.35 1.61-15.047 3.812-30.292 3.812h-.034c-42.018-.06-50.265-21.256-50.31-57.847.05-41.97 13.354-57.59 49.085-57.648 12.605 0 21.29 1.63 27.522 3.135L749.8 6.94c-.053-1.484.618-3.425 4.127-4.094L765.087 0h.608c2.564.064 3.472 2.35 3.477 4.285V131.3c.172 8.02-.772 14.9-14.12 17.69m-5.243-91.98c-3.727-.948-14.128-3.29-25.84-3.29-21.513.2-30.536 6.042-30.76 41.742.252 39.2 11.924 41.32 30.952 41.525l.01.822v-.823c11.843 0 22.003-2.468 25.627-3.467l.01-76.51zm-100.293 93.445h-9.982c-2.673-.004-4.69-2.024-4.696-4.696V70.407c-.182-12.747-3.99-16.292-17.716-16.483-15.53 0-31.246 3.896-36.43 5.31v86.52c-.005 2.72-1.894 4.696-4.49 4.7h-10.185c-2.676-.004-4.695-2.024-4.698-4.696V61.243c-.15-7.823.586-13.23 11.713-16.832 10.653-3.678 31.042-6.797 44.508-6.805 25.667.033 36.63 9.293 36.666 30.967v77.182c-.005 2.675-2.023 4.695-4.693 4.7m-226.074 2.035h.01c5.735-.11 9.978-1.245 11.64-3.11.59-.66.86-1.425.788-2.18-.038-.62-.038-.62-1.612-7.99l-.037-.176c-.34-1.928-1.716-2.804-2.85-2.804-.106 0-.21.006-.153.014 0 0-1.44-.07-2.864-.07h-.014c-4.09-.13-7.478-.725-7.548-6.71V4.287C420.798 2.2 419.54.058 417.122 0l-.712.006-11.178 2.865c-1.905.196-3.888 1.55-3.803 4.066v122.938c.02 14.558 7.834 22.59 22.004 22.617h.01zm-157.888-2.035h-80.092c-2.674-.004-4.693-2.024-4.698-4.696v-9.78c-.055-2.395.713-3.463 2.19-5.29l63.75-74.116H184.24c-2.675-.006-4.694-2.025-4.698-4.696v-6.925c.004-2.673 2.023-4.692 4.696-4.697h80.908c2.672.005 4.69 2.024 4.696 4.695v9.98c.04 1.805-.586 3.335-2.026 4.94l-63.91 74.265h61.646c2.674.008 4.693 2.025 4.698 4.697v6.924c-.005 2.675-2.024 4.695-4.697 4.7" fill="#231f20"/><path d="M20.28 27.906c-13.84 0-20.96 37.797-20.218 73.28-.02-.004-.042.006-.062 0 .74 31.148 7.628 61 21.28 61 52.398 0 112.095-49.41 112.095-67.124 0-4.43-4.514-12.957-10.563-19.687-.007.005-.023-.005-.03 0-.412-.478-.848-.954-1.282-1.438-18.665-20.825-57.388-46.03-101.22-46.03z" fill="url(#b)"/><path d="M.053 101.186c39.367 9.245 81.396-1.162 122.113-25.43l.615-.368c-.41-.478-.83-.96-1.265-1.443C102.85 53.12 64.105 27.91 20.273 27.91 6.43 27.91-.69 65.7.053 101.185M122.78 75.388c.01-.004.018-.01.025-.014l-.024.014z" fill="url(#c)"/><path d="M.01 101.177c.74 31.147 7.63 61.012 21.285 61.012 52.396 0 112.09-49.4 112.09-67.112 0-4.432-4.53-12.974-10.58-19.704C81.875 99.924 39.6 110.488.01 101.177" fill="url(#d)"/></svg>